<?xml version="1.0" encoding="utf-8"?>
<!-- Generator: Adobe Illustrator 27.6.1, SVG Export Plug-In . SVG Version: 6.00 Build 0)  -->
<svg version="1.1" id="Layer_1" xmlns="http://www.w3.org/2000/svg" xmlns:xlink="http://www.w3.org/1999/xlink" x="0px" y="0px"
	 viewBox="0 0 1098.6 600" style="enable-background:new 0 0 1098.6 600;" xml:space="preserve">
<style type="text/css">
	.st0{display:none;fill:#203A70;}
	.st1{fill:#221F1F;}
	.st2{clip-path:url(#SVGID_00000126316932208445778210000011902213852154139026_);fill:#221F1F;}
	.st3{clip-path:url(#SVGID_00000138539917257525172000000001092298076929297539_);fill:#221F1F;}
	.st4{clip-path:url(#SVGID_00000179609088134088487660000004244303470468894111_);fill:#221F1F;}
	.st5{fill:#002D72;}
	.st6{clip-path:url(#SVGID_00000044891558818129080540000000603017611453147023_);fill:#002D72;}
	.st7{clip-path:url(#SVGID_00000124872182294579219220000009847228441966572951_);fill:#002D72;}
	.st8{clip-path:url(#SVGID_00000057117920616469752590000005772780014128462260_);fill:#002D72;}
	.st9{fill:#FFFFFF;}
	.st10{clip-path:url(#SVGID_00000020396165542766269760000015485612561621281428_);fill:#FFFFFF;}
	.st11{clip-path:url(#SVGID_00000055698951936373411510000011244868437595348882_);fill:#FFFFFF;}
	.st12{clip-path:url(#SVGID_00000130644924979445122400000014135276406894311590_);fill:#FFFFFF;}
	.st13{clip-path:url(#SVGID_00000176020890156748609390000011265917851345596034_);fill:#221F1F;}
	.st14{clip-path:url(#SVGID_00000039821485980077095810000000733044192984684476_);fill:#221F1F;}
	.st15{clip-path:url(#SVGID_00000144317842678318986920000002734883682832258230_);fill:#221F1F;}
	.st16{clip-path:url(#SVGID_00000023271817935073999390000009615681383188159617_);fill:#002D72;}
	.st17{clip-path:url(#SVGID_00000006665749529837608310000001652038435952685489_);fill:#002D72;}
	.st18{clip-path:url(#SVGID_00000036973607971383030210000015377094351836519048_);fill:#FFFFFF;}
	.st19{clip-path:url(#SVGID_00000141444355839688308210000015212711750512051390_);fill:#FFFFFF;}
</style>
<g>
	<path class="st1" d="M519.9,182.7v-30.5c-10,8-18,18.5-23.1,30.5H519.9L519.9,182.7z"/>
	<g>
		<defs>
			<polygon id="SVGID_00000098905672212635519270000009794947084087762307_" points="454.5,297.2 643.5,297.2 643.5,93.5 
				454.5,93.5 454.5,297.2 			"/>
		</defs>
		<clipPath id="SVGID_00000183232550755402136300000012895400914613079949_">
			<use xlink:href="#SVGID_00000098905672212635519270000009794947084087762307_"  style="overflow:visible;"/>
		</clipPath>
		<path style="clip-path:url(#SVGID_00000183232550755402136300000012895400914613079949_);fill:#221F1F;" d="M545.7,144.7V183
			c10.6,0,19.1-8.6,19.1-19.2C564.8,153.3,556.3,144.7,545.7,144.7"/>
		<path style="clip-path:url(#SVGID_00000183232550755402136300000012895400914613079949_);fill:#221F1F;" d="M617.9,213.3h-29.8
			h-8.6h-0.6v-77.8h9.2v69h29.8V213.3L617.9,213.3z M545.7,192.2v21.1h-9.2v-77.9h9.2v0c15.6,0,28.3,12.7,28.3,28.4
			C574,179.5,561.4,192.2,545.7,192.2 M529.1,213.3h-9.2v-21.1h-26.4c-1.9,6.7-2.9,13.8-2.9,21.1h-9.1c0-34,19.4-63.4,47.6-77.9
			L529.1,213.3L529.1,213.3z M639.7,103.1L639.7,103.1c-29.3-6.3-59.6-9.6-90.7-9.6c-31.1,0-61.5,3.3-90.8,9.6l-0.1,0
			c-2.1,0.5-3.6,2.4-3.6,4.6l0,16.4c0,108.7,64.4,157.7,92.1,172.4c1.8,1,3.2,0.8,4.7,0c27.7-14.7,92.1-63.6,92.1-172.4l0-16.4
			C643.5,105.4,641.9,103.5,639.7,103.1"/>
	</g>
	<g>
		<defs>
			<polygon id="SVGID_00000116924197469320301400000001145134694405208199_" points="126.1,443.6 971.4,443.6 971.4,328.2 
				126.1,328.2 126.1,443.6 			"/>
		</defs>
		<clipPath id="SVGID_00000105387174152186628060000001781717470587898804_">
			<use xlink:href="#SVGID_00000116924197469320301400000001145134694405208199_"  style="overflow:visible;"/>
		</clipPath>
		<path style="clip-path:url(#SVGID_00000105387174152186628060000001781717470587898804_);fill:#221F1F;" d="M150.3,348.9
			c0-14.8-1.3-16.4-9.2-17.1l-3.3-0.3c-0.8-0.5-0.5-2.9,0.3-3.3c7.7,0.3,12.3,0.4,17.9,0.4c5.3,0,9.9-0.1,15.2-0.4
			c0.8,0.4,1.1,2.8,0.3,3.3l-2,0.3c-7.9,1.1-8.2,2.9-8.2,17.1v49.6c0,10.5-0.5,19.8-3.1,25.9c-4.4,10.7-13.9,19.2-26.3,19.2
			c-1.6,0-5.7-0.1-5.7-2.8c0-2.3,2-6.2,4.8-6.2c1.6,0,3.2,0.3,4.9,0.8c1.9,0.5,3.7,0.9,5.6,0.9c2.8,0,4.4-1.6,5.3-3.5
			c3.1-6.3,3.5-26.3,3.5-33.5V348.9L150.3,348.9z"/>
	</g>
	<path class="st1" d="M239.1,382.7c0-18.6-8.2-38.7-29.7-38.7c-11.7,0-26.9,8-26.9,32.7c0,16.7,8.1,38.3,30.3,38.3
		C226.2,415,239.1,404.9,239.1,382.7 M171.1,380.3c0-22.5,16.9-39.8,40.1-39.8c26,0,39.1,18.8,39.1,38.7c0,22.8-17.4,39.3-39.1,39.3
		C186.2,418.5,171.1,400.6,171.1,380.3"/>
	<path class="st1" d="M275.9,380.3c-5.4,0-5.6,0.2-5.6,3.6v15.9c0,11.8,0.6,13.4,6.9,14.1l3.3,0.3c0.7,0.4,0.5,2.5-0.2,2.8
		c-6.1-0.2-9.9-0.3-14.3-0.3c-4.8,0-8.7,0.2-13.1,0.3c-0.7-0.3-0.9-2.1-0.2-2.8l1.9-0.3c6.3-1.1,6.5-2.3,6.5-14.1v-40.6
		c0-11.8-0.8-13.7-6.6-14.2l-2.9-0.2c-0.7-0.5-0.5-2.5,0.2-2.8c5.5,0.1,9.4,0.3,14.2,0.3c4.4,0,8.2-0.1,13.1-0.3
		c0.7,0.3,0.9,2.4,0.2,2.8l-2.1,0.2c-6.5,0.7-6.8,2.4-6.8,14.2v13c0,3.5,0.2,3.6,5.6,3.6h32.2c5.4,0,5.6-0.1,5.6-3.6v-13
		c0-11.8-0.2-13.5-6.9-14.2l-2.1-0.2c-0.7-0.5-0.5-2.5,0.2-2.8c5.2,0.2,9,0.3,13.6,0.3c4.4,0,8.2-0.1,13.3-0.3
		c0.7,0.3,0.9,2.4,0.2,2.8l-2.4,0.2c-6.5,0.7-6.8,2.4-6.8,14.2v40.6c0,11.8,0.2,13.3,6.8,14.1l2.7,0.3c0.7,0.4,0.5,2.5-0.2,2.8
		c-5.4-0.2-9.2-0.3-13.6-0.3c-4.6,0-8.7,0.1-13.6,0.3c-0.7-0.3-0.9-2.1-0.2-2.8l2.1-0.3c6.9-1.1,6.9-2.3,6.9-14.1v-15.9
		c0-3.4-0.2-3.6-5.6-3.6H275.9L275.9,380.3z"/>
	<path class="st1" d="M409.5,397.6c0,3.4,0,16.8,0.3,19.7c-0.2,0.7-0.9,1.2-2.1,1.2c-1.4-1.9-4.6-5.9-14.4-17l-26.1-29.8
		c-3-3.5-10.7-12.7-13.1-15.2h-0.2c-0.5,1.3-0.6,3.9-0.6,7.3v24.6c0,5.3,0.1,19.9,2,23.3c0.7,1.2,2.9,1.9,5.7,2.1l3.5,0.3
		c0.7,0.9,0.6,2.3-0.2,2.8c-5.1-0.2-9-0.3-13.2-0.3c-4.7,0-7.8,0.1-11.7,0.3c-0.8-0.6-0.9-2.1-0.2-2.8l3-0.3c2.6-0.3,4.4-1,5-2.3
		c1.6-4.1,1.5-17.8,1.5-23.2v-32.6c0-3.2-0.1-5.5-2.5-8.1c-1.6-1.6-4.3-2.4-7-2.7l-1.9-0.2c-0.7-0.7-0.7-2.4,0.2-2.8
		c4.7,0.3,10.7,0.3,12.7,0.3c1.8,0,3.7-0.1,5.2-0.3c2.3,5.8,15.6,20.6,19.3,24.8l10.9,12.3c7.8,8.7,13.3,15,18.6,20.4h0.2
		c0.5-0.6,0.5-2.4,0.5-4.7v-24.1c0-5.3-0.1-19.9-2.2-23.3c-0.7-1-2.5-1.7-7-2.3l-1.9-0.2c-0.8-0.7-0.7-2.5,0.2-2.8
		c5.2,0.2,9,0.3,13.3,0.3c4.8,0,7.8-0.1,11.6-0.3c0.9,0.6,0.9,2.1,0.2,2.8l-1.6,0.2c-3.6,0.6-5.9,1.5-6.3,2.4
		c-1.9,4.1-1.7,18-1.7,23.2V397.6L409.5,397.6z"/>
	<g>
		<defs>
			<polygon id="SVGID_00000111189193222403465050000008316218647881808527_" points="126.1,443.6 971.4,443.6 971.4,328.2 
				126.1,328.2 126.1,443.6 			"/>
		</defs>
		<clipPath id="SVGID_00000093864777959479206300000011366424461753228946_">
			<use xlink:href="#SVGID_00000111189193222403465050000008316218647881808527_"  style="overflow:visible;"/>
		</clipPath>
		<path style="clip-path:url(#SVGID_00000093864777959479206300000011366424461753228946_);fill:#221F1F;" d="M439.3,418.5
			c-9.5,0-15.4-2.9-17.6-4.2c-1.4-2.5-2.8-10.5-3-15.8c0.6-0.8,2.3-1,2.7-0.3c1.7,5.7,6.3,16.8,19.4,16.8c9.5,0,14.1-6.2,14.1-13
			c0-5-1-10.5-9.2-15.8l-10.7-7c-5.6-3.7-12.2-10.1-12.2-19.4c0-10.7,8.3-19.4,23-19.4c3.5,0,7.6,0.7,10.5,1.5
			c1.5,0.5,3,0.7,3.9,0.7c1,2.7,2,9,2,13.7c-0.5,0.7-2.3,1-2.8,0.3c-1.5-5.4-4.5-12.7-15.3-12.7c-11,0-13.4,7.3-13.4,12.5
			c0,6.5,5.4,11.3,9.6,13.9l9,5.6c7.1,4.4,14.1,10.9,14.1,21.6C463.3,410.1,453.9,418.5,439.3,418.5"/>
		<path style="clip-path:url(#SVGID_00000093864777959479206300000011366424461753228946_);fill:#221F1F;" d="M530.2,373.6
			c-6.4,0-6.7,0.3-6.7,4.3v18.8c0,14,0.7,15.9,8.1,16.7l3.9,0.4c0.8,0.5,0.5,2.9-0.3,3.3c-7.2-0.3-11.8-0.4-17-0.4
			c-5.7,0-10.3,0.3-15.5,0.4c-0.8-0.4-1.1-2.5-0.3-3.3l2.3-0.4c7.5-1.3,7.7-2.7,7.7-16.7v-48.1c0-14-0.9-16.3-7.9-16.8l-3.5-0.3
			c-0.8-0.5-0.5-2.9,0.3-3.3c6.5,0.1,11.1,0.4,16.8,0.4c5.2,0,9.7-0.1,15.5-0.4c0.8,0.4,1.1,2.8,0.3,3.3l-2.5,0.3
			c-7.7,0.8-8,2.8-8,16.8V364c0,4.1,0.3,4.3,6.7,4.3h38.2c6.4,0,6.7-0.1,6.7-4.3v-15.4c0-14-0.3-16-8.2-16.8l-2.5-0.3
			c-0.8-0.5-0.5-2.9,0.3-3.3c6.1,0.3,10.7,0.4,16.2,0.4c5.2,0,9.8-0.1,15.8-0.4c0.8,0.4,1.1,2.8,0.3,3.3l-2.8,0.3
			c-7.7,0.8-8,2.8-8,16.8v48.1c0,14,0.3,15.8,8,16.7l3.2,0.4c0.8,0.5,0.5,2.9-0.3,3.3c-6.4-0.3-11-0.4-16.2-0.4
			c-5.5,0-10.3,0.1-16.2,0.4c-0.8-0.4-1.1-2.5-0.3-3.3l2.5-0.4c8.2-1.3,8.2-2.7,8.2-16.7v-18.8c0-4-0.3-4.3-6.7-4.3H530.2
			L530.2,373.6z"/>
	</g>
	<path class="st1" d="M664.4,382.7c0-18.6-8.2-38.7-29.8-38.7c-11.7,0-26.9,8-26.9,32.7c0,16.7,8.1,38.3,30.3,38.3
		C651.5,415,664.4,404.9,664.4,382.7 M596.4,380.3c0-22.5,16.9-39.8,40.1-39.8c26,0,39.1,18.8,39.1,38.7c0,22.8-17.4,39.3-39.1,39.3
		C611.5,418.5,596.4,400.6,596.4,380.3"/>
	<path class="st1" d="M696,399.8c0,11.8,0.2,13.3,7.4,14.1l3,0.3c0.7,0.6,0.5,2.5-0.2,2.8c-6.4-0.2-10.1-0.3-14.7-0.3
		c-4.7,0-8.8,0.1-13.7,0.3c-0.7-0.3-0.9-2.1-0.2-2.8l2.4-0.3c6.5-0.9,6.8-2.3,6.8-14.1v-41.6c0-9.6-0.2-11.5-5.3-12.1l-4.1-0.5
		c-0.8-0.7-0.7-2.4,0.2-2.8c6-0.8,13-0.9,22.3-0.9c9.4,0,16.3,1.2,21.6,4.5c5.2,3.3,9,9.1,9,16.9c0,10.4-6.4,15.6-11.3,17.9
		c-5,2.4-10.9,3.4-15.6,3.4c-0.8-0.3-0.8-2-0.1-2.2c12.2-2.3,16.6-9.1,16.6-18.9c0-10.9-6.4-18-18.1-18c-6,0-6.1,0.4-6.1,4.1V399.8
		L696,399.8z"/>
	<path class="st1" d="M742.9,359.3c0-11.8-0.2-13.6-6.8-14.2l-2.8-0.2c-0.7-0.5-0.4-2.5,0.2-2.8c5.5,0.2,9.1,0.3,14.2,0.3
		c4.4,0,8.2-0.1,13.1-0.3c0.7,0.3,0.9,2.4,0.2,2.8l-2.1,0.2c-6.5,0.7-6.8,2.4-6.8,14.2v13c0,2.1,0.2,4.3,1.5,4.3
		c1,0,2.4-0.7,3.2-1.2c1.6-1.3,4.5-4.3,5.8-5.4l12.2-12.1c2.1-2,7.7-7.8,8.8-9.4c0.6-0.8,0.8-1.4,0.8-1.8c0-0.4-0.5-0.8-1.9-1.1
		l-3-0.7c-0.8-0.8-0.7-2.3,0.2-2.8c3.9,0.2,8.5,0.3,12.4,0.3s7.8-0.1,11.2-0.3c0.8,0.6,0.9,2.1,0.2,2.8c-2.9,0.2-7.3,1.4-10.5,3.2
		c-3.2,1.8-9.5,7.1-15.8,13.1l-10.1,9.6c-1.6,1.6-2.6,2.6-2.6,3.5c0,0.8,0.7,1.7,2.1,3.5c10.7,12.3,19.4,22.4,28.2,31.7
		c2.7,2.7,4.8,4.2,8.6,4.6l2.2,0.3c0.8,0.6,0.6,2.5-0.2,2.8c-2.9-0.2-6-0.3-11.3-0.3c-4.6,0-8.6,0.1-13.8,0.3
		c-0.8-0.2-1.1-2.2-0.5-2.8l2.6-0.5c1.6-0.2,2.7-0.6,2.7-1.1c0-0.7-0.8-1.6-1.6-2.6c-2.1-2.7-5.1-5.7-9.3-10.6l-9-10.1
		c-6.4-7.2-8.2-9.5-10.9-9.5c-1.7,0-1.9,1.5-1.9,5.4v14.5c0,11.8,0.2,13.4,6.5,14.1l3,0.3c0.7,0.5,0.5,2.5-0.2,2.8
		c-5.5-0.2-9.4-0.3-13.8-0.3c-4.6,0-8.4,0.1-13.1,0.3c-0.7-0.3-0.9-2-0.2-2.8l2.3-0.3c6-0.9,6.2-2.3,6.2-14.1V359.3L742.9,359.3z"/>
	<path class="st1" d="M820.3,359.5c0-11.9-0.2-13.9-6.9-14.4l-2.8-0.2c-0.7-0.5-0.5-2.5,0.2-2.8c5.6,0.2,9.5,0.3,14.2,0.3
		c4.5,0,8.3-0.1,14-0.3c0.7,0.3,0.9,2.4,0.2,2.8l-2.8,0.2c-6.6,0.6-6.9,2.5-6.9,14.4v40.1c0,12,0.2,13.5,6.9,14.3l2.8,0.3
		c0.7,0.5,0.5,2.5-0.2,2.8c-5.6-0.2-9.5-0.3-14-0.3c-4.7,0-8.1,0.1-13.8,0.3c-0.7-0.3-0.9-2.1-0.2-2.8l2.4-0.3
		c6.7-0.8,6.9-2.4,6.9-14.3V359.5L820.3,359.5z"/>
	<path class="st1" d="M917.8,397.6c0,3.4,0,16.8,0.3,19.7c-0.2,0.7-0.9,1.2-2.1,1.2c-1.4-1.9-4.6-5.9-14.4-17l-26.1-29.8
		c-3-3.5-10.7-12.7-13.1-15.2h-0.2c-0.5,1.3-0.6,3.9-0.6,7.3v24.6c0,5.3,0.1,19.9,2,23.3c0.7,1.2,2.9,1.9,5.7,2.1l3.5,0.3
		c0.7,0.9,0.6,2.3-0.2,2.8c-5.1-0.2-9-0.3-13.2-0.3c-4.7,0-7.8,0.1-11.7,0.3c-0.8-0.6-0.9-2.1-0.2-2.8l3-0.3c2.6-0.3,4.4-1,5-2.3
		c1.6-4.1,1.5-17.8,1.5-23.2v-32.6c0-3.2-0.1-5.5-2.5-8.1c-1.6-1.6-4.3-2.4-7-2.7l-1.9-0.2c-0.7-0.7-0.7-2.4,0.2-2.8
		c4.7,0.3,10.7,0.3,12.7,0.3c1.8,0,3.7-0.1,5.2-0.3c2.3,5.8,15.6,20.6,19.3,24.8l10.9,12.3c7.8,8.7,13.3,15,18.6,20.4h0.2
		c0.5-0.6,0.5-2.4,0.5-4.7v-24.1c0-5.3-0.1-19.9-2.3-23.3c-0.7-1-2.5-1.7-7-2.3l-1.9-0.2c-0.8-0.7-0.7-2.5,0.2-2.8
		c5.2,0.2,9,0.3,13.3,0.3c4.9,0,7.8-0.1,11.6-0.3c0.9,0.6,0.9,2.1,0.2,2.8l-1.6,0.2c-3.6,0.6-5.9,1.5-6.3,2.4
		c-1.9,4.1-1.7,18-1.7,23.2V397.6L917.8,397.6z"/>
	<path class="st1" d="M947.4,418.5c-9.5,0-15.4-2.9-17.6-4.2c-1.3-2.5-2.8-10.5-3-15.8c0.6-0.8,2.3-1,2.7-0.3
		c1.7,5.7,6.3,16.8,19.4,16.8c9.5,0,14.1-6.2,14.1-13c0-5-1-10.5-9.2-15.8l-10.7-7c-5.6-3.7-12.2-10.1-12.2-19.4
		c0-10.7,8.3-19.4,23-19.4c3.5,0,7.5,0.7,10.5,1.5c1.5,0.5,3,0.7,3.9,0.7c1,2.7,2,9,2,13.7c-0.5,0.7-2.2,1-2.8,0.3
		c-1.5-5.4-4.5-12.7-15.3-12.7c-11,0-13.4,7.3-13.4,12.5c0,6.5,5.4,11.3,9.6,13.9l9,5.6c7.1,4.4,14.1,10.9,14.1,21.6
		C971.4,410.1,962,418.5,947.4,418.5"/>
	<path class="st1" d="M102.6,486.9c-0.5,1.3-0.4,1.4,1.2,1.4h7.2c1.7,0,1.8-0.2,1.3-1.8l-3.1-9.5c-0.5-1.4-1-3-1.3-3.7h-0.1
		c-0.2,0.3-0.8,1.7-1.4,3.4L102.6,486.9L102.6,486.9z M114.2,492.1c-0.4-1.3-0.6-1.5-2.4-1.5H103c-1.5,0-1.8,0.2-2.2,1.4l-2,6.1
		c-0.9,2.6-1.3,4.2-1.3,4.8c0,0.7,0.3,1,1.7,1.2l1.9,0.2c0.4,0.3,0.4,1.2-0.1,1.5c-1.5-0.1-3.3-0.1-6.1-0.2c-1.9,0-4,0.1-5.6,0.2
		c-0.4-0.2-0.5-1.2-0.1-1.5l1.9-0.2c1.4-0.1,2.7-0.8,3.5-2.9c1-2.7,2.7-6.5,5.1-13l5.9-15.7c0.8-2.1,1.2-3.2,1-4.1
		c1.4-0.4,2.4-1.5,3-2.2c0.3,0,0.8,0.1,0.9,0.5c0.8,2.6,1.7,5.2,2.6,7.8l8,23.4c1.7,5,2.4,5.9,4.9,6.2l1.6,0.2
		c0.4,0.3,0.3,1.2,0,1.5c-2.4-0.1-4.4-0.2-7-0.2c-2.8,0-5,0.1-6.7,0.2c-0.5-0.2-0.5-1.2-0.1-1.5l1.7-0.2c1.2-0.1,2-0.5,2-1
		c0-0.6-0.3-1.7-0.8-3.1L114.2,492.1L114.2,492.1z"/>
	<path class="st1" d="M141.9,496.8c0,6.1,0.1,6.9,3.8,7.3l1.6,0.2c0.4,0.3,0.2,1.3-0.1,1.5c-3.3-0.1-5.2-0.2-7.6-0.2
		c-2.4,0-4.5,0.1-7.1,0.2c-0.4-0.2-0.5-1.1-0.1-1.5l1.2-0.2c3.4-0.5,3.5-1.2,3.5-7.3v-21.5c0-5-0.1-5.9-2.7-6.2l-2.1-0.2
		c-0.4-0.3-0.3-1.2,0.1-1.5c3.1-0.4,6.7-0.5,11.5-0.5c4.8,0,8.4,0.6,11.2,2.3c2.7,1.7,4.7,4.7,4.7,8.7c0,5.4-3.3,8-5.8,9.3
		c-2.6,1.2-5.6,1.7-8,1.7c-0.4-0.2-0.4-1-0.1-1.2c6.3-1.2,8.6-4.7,8.6-9.8c0-5.6-3.3-9.3-9.4-9.3c-3.1,0-3.1,0.2-3.1,2.1V496.8
		L141.9,496.8z"/>
	<path class="st1" d="M175.2,496.8c0,6.1,0.1,6.9,3.8,7.3l1.6,0.2c0.4,0.3,0.2,1.3-0.1,1.5c-3.3-0.1-5.2-0.2-7.6-0.2
		c-2.4,0-4.5,0.1-7.1,0.2c-0.4-0.2-0.5-1.1-0.1-1.5l1.2-0.2c3.4-0.5,3.5-1.2,3.5-7.3v-21.5c0-5-0.1-5.9-2.7-6.2l-2.1-0.2
		c-0.4-0.3-0.3-1.2,0.1-1.5c3.1-0.4,6.7-0.5,11.5-0.5c4.8,0,8.4,0.6,11.2,2.3c2.7,1.7,4.7,4.7,4.7,8.7c0,5.4-3.3,8-5.8,9.3
		c-2.6,1.2-5.6,1.7-8,1.7c-0.4-0.2-0.4-1-0.1-1.2c6.3-1.2,8.6-4.7,8.6-9.8c0-5.6-3.3-9.3-9.4-9.3c-3.1,0-3.1,0.2-3.1,2.1V496.8
		L175.2,496.8z"/>
	<path class="st1" d="M203.9,475.9c0-6.1-0.1-7-3.8-7.3l-1.5-0.1c-0.3-0.2-0.2-1.3,0.1-1.5c3.3,0.1,5.2,0.2,7.6,0.2
		c2.3,0,4.3-0.1,7.2-0.2c0.3,0.2,0.5,1.2,0.1,1.5l-1.4,0.1c-3.4,0.3-3.6,1.2-3.6,7.3v20.3c0,3.7,0.2,5.2,1.2,6.3
		c0.6,0.6,1.7,1.3,6.3,1.3c5,0,6.2-0.2,7.1-0.8c1.2-0.7,2.7-2.8,3.8-5.8c0.4-0.3,1.5-0.1,1.5,0.4c0,0.6-1.6,6.6-2.4,8.2
		c-3-0.1-8.5-0.2-14.5-0.2h-5.4c-2.4,0-4.3,0.1-7.6,0.2c-0.3-0.2-0.5-1.1-0.1-1.5l1.8-0.2c3.4-0.4,3.5-1.2,3.5-7.3V475.9
		L203.9,475.9z"/>
	<path class="st1" d="M238.9,476c0-6.2-0.1-7.2-3.6-7.5l-1.5-0.1c-0.3-0.2-0.2-1.3,0.1-1.5c2.9,0.1,4.9,0.2,7.3,0.2
		c2.3,0,4.3-0.1,7.2-0.2c0.4,0.2,0.5,1.2,0.1,1.5l-1.5,0.1c-3.4,0.3-3.6,1.3-3.6,7.5v20.7c0,6.2,0.1,7,3.6,7.4l1.5,0.2
		c0.4,0.2,0.2,1.3-0.1,1.5c-2.9-0.1-4.9-0.2-7.2-0.2c-2.4,0-4.4,0.1-7.3,0.2c-0.4-0.2-0.5-1.1-0.1-1.5l1.5-0.2
		c3.4-0.4,3.6-1.2,3.6-7.4V476L238.9,476z"/>
	<path class="st1" d="M261.5,475.9c0-6.1-0.1-6.9-3.6-7.3l-0.9-0.1c-0.4-0.2-0.2-1.3,0.1-1.5c2.5,0.1,4.5,0.2,6.9,0.2h11
		c3.7,0,7.2,0,7.9-0.2c0.3,1,0.7,5.2,0.9,7.7c-0.2,0.4-1.2,0.5-1.5,0.1c-0.9-2.7-1.4-4.8-4.4-5.5c-1.2-0.3-3.1-0.4-5.6-0.4h-4.2
		c-1.8,0-1.8,0.1-1.8,2.3v11.6c0,1.6,0.2,1.6,1.9,1.6h3.4c2.4,0,4.3-0.1,5-0.4c0.7-0.2,1.1-0.6,1.4-2l0.5-2.4
		c0.3-0.4,1.3-0.4,1.5,0.1c0,1.4-0.2,3.7-0.2,5.9c0,2.1,0.2,4.3,0.2,5.6c-0.2,0.4-1.2,0.4-1.5,0.1l-0.5-2.3c-0.2-1-0.6-1.9-1.8-2.2
		c-0.8-0.2-2.2-0.3-4.5-0.3h-3.4c-1.7,0-1.9,0.1-1.9,1.6v8.2c0,3.1,0.2,5.1,1.1,6.1c0.7,0.7,1.9,1.3,7,1.3c4.5,0,6.2-0.2,7.5-0.9
		c1-0.6,2.6-2.6,4.1-5.7c0.4-0.3,1.2-0.1,1.5,0.4c-0.4,2-1.9,6.5-2.6,8.1c-5.2-0.1-10.4-0.2-15.6-0.2H264c-2.5,0-4.5,0.1-7.9,0.2
		c-0.3-0.2-0.5-1.1-0.1-1.5l1.9-0.2c3.3-0.3,3.6-1.2,3.6-7.3V475.9L261.5,475.9z"/>
	<path class="st1" d="M303.2,495.5c0,3.1,0.2,5,1.2,6.4c1.3,1.8,3.5,2.4,7.2,2.4c11.3,0,16.4-7.4,16.4-18.2
		c0-6.4-3.1-17.2-18.3-17.2c-3.4,0-5.3,0.5-5.8,0.8c-0.5,0.4-0.6,1.8-0.6,4.4V495.5L303.2,495.5z M298.5,474.7
		c0-4.1-0.3-5.3-2.7-5.6l-1.3-0.2c-0.5-0.3-0.5-1.2,0.1-1.5c5-0.3,9.7-0.5,14.6-0.5c4.9,0,9,0.3,12.8,1.7
		c7.9,2.9,11.8,9.5,11.8,17.2c0,7.4-3.6,13.7-10.2,17.4c-3.8,2-8.6,2.8-13.1,2.8c-3.7,0-7.5-0.5-9.5-0.5c-2.4,0-4.5,0.1-7.3,0.2
		c-0.3-0.2-0.5-1.1-0.1-1.5l1.3-0.2c3.4-0.5,3.5-1.2,3.5-7.3V474.7L298.5,474.7z"/>
	<path class="st1" d="M369,496.8c0,6.1,0.1,6.9,3.8,7.3l1.6,0.2c0.4,0.3,0.2,1.3-0.1,1.5c-3.3-0.1-5.2-0.2-7.6-0.2
		c-2.4,0-4.5,0.1-7.1,0.2c-0.4-0.2-0.5-1.1-0.1-1.5l1.2-0.2c3.4-0.5,3.5-1.2,3.5-7.3v-21.5c0-5-0.1-5.9-2.7-6.2l-2.1-0.2
		c-0.4-0.3-0.3-1.2,0.1-1.5c3.1-0.4,6.7-0.5,11.5-0.5c4.8,0,8.4,0.6,11.2,2.3c2.7,1.7,4.7,4.7,4.7,8.7c0,5.4-3.3,8-5.8,9.3
		c-2.6,1.2-5.6,1.7-8,1.7c-0.4-0.2-0.4-1-0.1-1.2c6.3-1.2,8.6-4.7,8.6-9.8c0-5.6-3.3-9.3-9.4-9.3c-3.1,0-3.1,0.2-3.1,2.1V496.8
		L369,496.8z"/>
	<path class="st1" d="M406,486.7c-2.8,0-2.9,0.1-2.9,1.9v8.2c0,6.1,0.3,6.9,3.6,7.3l1.7,0.2c0.3,0.2,0.2,1.3-0.1,1.5
		c-3.1-0.1-5.1-0.2-7.4-0.2c-2.5,0-4.5,0.1-6.8,0.2c-0.4-0.2-0.5-1.1-0.1-1.5l1-0.2c3.3-0.6,3.4-1.2,3.4-7.3v-21
		c0-6.1-0.4-7.1-3.4-7.3l-1.5-0.1c-0.4-0.2-0.2-1.3,0.1-1.5c2.8,0.1,4.8,0.2,7.3,0.2c2.3,0,4.2-0.1,6.8-0.2c0.3,0.2,0.5,1.2,0.1,1.5
		l-1.1,0.1c-3.4,0.3-3.5,1.2-3.5,7.3v6.7c0,1.8,0.1,1.9,2.9,1.9h16.7c2.8,0,2.9-0.1,2.9-1.9v-6.7c0-6.1-0.1-7-3.6-7.3l-1.1-0.1
		c-0.4-0.2-0.2-1.3,0.1-1.5c2.7,0.1,4.7,0.2,7.1,0.2c2.3,0,4.2-0.1,6.9-0.2c0.3,0.2,0.5,1.2,0.1,1.5l-1.2,0.1
		c-3.4,0.3-3.5,1.2-3.5,7.3v21c0,6.1,0.1,6.9,3.5,7.3l1.4,0.2c0.3,0.2,0.2,1.3-0.1,1.5c-2.8-0.1-4.8-0.2-7-0.2
		c-2.4,0-4.5,0.1-7.1,0.2c-0.3-0.2-0.5-1.1-0.1-1.5l1.1-0.2c3.6-0.6,3.6-1.2,3.6-7.3v-8.2c0-1.7-0.1-1.9-2.9-1.9H406L406,486.7z"/>
	<path class="st1" d="M460.2,496.7c0,6.2,0.4,7.2,3.5,7.4l2.2,0.2c0.4,0.3,0.2,1.3-0.1,1.5c-3.6-0.1-5.6-0.2-7.9-0.2
		c-2.4,0-4.5,0.1-7.6,0.2c-0.3-0.2-0.5-1.1-0.1-1.5l1.8-0.2c3.4-0.3,3.5-1.2,3.5-7.4v-3c0-3.2-0.2-4-1.9-7.2l-6.9-13.4
		c-2-3.8-2.9-4.1-4.6-4.4l-1.6-0.3c-0.4-0.4-0.3-1.2,0.1-1.5c1.9,0.1,4,0.2,6.8,0.2c2.7,0,4.8-0.1,6.2-0.2c0.5,0.2,0.5,1.1,0.2,1.5
		l-0.8,0.1c-2,0.3-2.4,0.6-2.4,1c0,0.6,1.5,3.9,1.8,4.5c2.2,4.3,4.3,8.9,6.6,12.9c1.8-3.1,3.7-6.5,5.5-9.8c1.6-3,3.8-7,3.8-7.7
		c0-0.3-1-0.8-2.4-0.9l-1-0.1c-0.4-0.4-0.4-1.2,0.1-1.5c2.1,0.1,3.8,0.2,5.6,0.2c1.8,0,3.4-0.1,5.4-0.2c0.5,0.3,0.5,1.1,0.1,1.5
		l-1.6,0.3c-3,0.5-4.8,4.2-7.7,9.2l-3.7,6.4c-2.6,4.4-2.7,4.9-2.7,9.4V496.7L460.2,496.7z"/>
	<path class="st1" d="M490,506.5c-4.9,0-8-1.5-9.1-2.2c-0.7-1.3-1.5-5.4-1.6-8.2c0.3-0.4,1.2-0.5,1.4-0.2c0.9,3,3.3,8.7,10,8.7
		c4.9,0,7.3-3.2,7.3-6.7c0-2.6-0.5-5.4-4.8-8.2l-5.5-3.6c-2.9-1.9-6.3-5.3-6.3-10c0-5.5,4.3-10,11.9-10c1.8,0,3.9,0.3,5.4,0.8
		c0.8,0.2,1.6,0.4,2,0.4c0.5,1.4,1,4.7,1,7.1c-0.2,0.3-1.2,0.5-1.5,0.2c-0.8-2.8-2.3-6.6-7.9-6.6c-5.7,0-6.9,3.8-6.9,6.5
		c0,3.4,2.8,5.8,4.9,7.2l4.7,2.9c3.7,2.3,7.3,5.7,7.3,11.2C502.5,502.1,497.6,506.5,490,506.5"/>
	<path class="st1" d="M515.8,476c0-6.2-0.1-7.2-3.6-7.5l-1.5-0.1c-0.3-0.2-0.2-1.3,0.1-1.5c2.9,0.1,4.9,0.2,7.3,0.2
		c2.3,0,4.3-0.1,7.2-0.2c0.4,0.2,0.5,1.2,0.1,1.5l-1.5,0.1c-3.4,0.3-3.6,1.3-3.6,7.5v20.7c0,6.2,0.1,7,3.6,7.4l1.5,0.2
		c0.4,0.2,0.2,1.3-0.1,1.5c-2.9-0.1-4.9-0.2-7.2-0.2c-2.4,0-4.4,0.1-7.3,0.2c-0.4-0.2-0.5-1.1-0.1-1.5l1.5-0.2
		c3.4-0.4,3.6-1.2,3.6-7.4V476L515.8,476z"/>
	<path class="st1" d="M537.9,471.1c4.3-3.3,9.7-4.9,15.7-4.9c3.1,0,7.6,0.6,10.3,1.4c0.7,0.2,1.1,0.3,1.6,0.2c0.1,1.3,0.3,5,0.8,8.6
		c-0.3,0.4-1.2,0.5-1.6,0.1c-0.9-4-3.5-8.5-11.9-8.5c-8.9,0-16.5,5.7-16.5,17.7c0,12.2,7.8,19,17.3,19c7.5,0,10.8-4.9,12.2-8.3
		c0.4-0.3,1.3-0.2,1.5,0.2c-0.4,3-1.9,6.9-2.8,8c-0.7,0.1-1.4,0.3-2,0.6c-1.3,0.5-5.5,1.3-9.2,1.3c-5.2,0-10.3-1-14.5-3.9
		c-4.7-3.2-8.3-8.5-8.3-16C530.6,480.1,533.5,474.6,537.9,471.1"/>
	<path class="st1" d="M584.5,506.5c-4.9,0-8-1.5-9.1-2.2c-0.7-1.3-1.5-5.4-1.6-8.2c0.3-0.4,1.2-0.5,1.4-0.2c0.9,3,3.3,8.7,10,8.7
		c4.9,0,7.3-3.2,7.3-6.7c0-2.6-0.5-5.4-4.8-8.2l-5.5-3.6c-2.9-1.9-6.3-5.3-6.3-10c0-5.5,4.3-10,11.9-10c1.8,0,3.9,0.3,5.4,0.8
		c0.8,0.2,1.6,0.4,2,0.4c0.5,1.4,1,4.7,1,7.1c-0.2,0.3-1.2,0.5-1.5,0.2c-0.8-2.8-2.3-6.6-7.9-6.6c-5.7,0-6.9,3.8-6.9,6.5
		c0,3.4,2.8,5.8,4.9,7.2l4.7,2.9c3.7,2.3,7.3,5.7,7.3,11.2C596.9,502.1,592.1,506.5,584.5,506.5"/>
	<path class="st1" d="M627.7,475.9c0-6.1-0.1-7-3.8-7.3l-1.5-0.1c-0.3-0.2-0.2-1.3,0.1-1.5c3.3,0.1,5.2,0.2,7.6,0.2
		c2.3,0,4.3-0.1,7.2-0.2c0.3,0.2,0.5,1.2,0.1,1.5l-1.4,0.1c-3.4,0.3-3.6,1.2-3.6,7.3v20.3c0,3.7,0.2,5.2,1.2,6.3
		c0.6,0.6,1.7,1.3,6.3,1.3c5,0,6.2-0.2,7.1-0.8c1.2-0.7,2.7-2.8,3.8-5.8c0.4-0.3,1.5-0.1,1.5,0.4c0,0.6-1.6,6.6-2.4,8.2
		c-3-0.1-8.5-0.2-14.5-0.2h-5.4c-2.4,0-4.3,0.1-7.6,0.2c-0.3-0.2-0.5-1.1-0.1-1.5l1.8-0.2c3.4-0.4,3.5-1.2,3.5-7.3V475.9
		L627.7,475.9z"/>
	<path class="st1" d="M668.2,486.9c-0.5,1.3-0.4,1.4,1.2,1.4h7.2c1.7,0,1.8-0.2,1.3-1.8l-3.1-9.5c-0.5-1.4-1-3-1.3-3.7h-0.1
		c-0.2,0.3-0.8,1.7-1.4,3.4L668.2,486.9L668.2,486.9z M679.8,492.1c-0.4-1.3-0.6-1.5-2.4-1.5h-8.8c-1.5,0-1.8,0.2-2.2,1.4l-2,6.1
		c-0.9,2.6-1.3,4.2-1.3,4.8c0,0.7,0.3,1,1.7,1.2l1.9,0.2c0.4,0.3,0.4,1.2-0.1,1.5c-1.5-0.1-3.3-0.1-6.1-0.2c-1.9,0-4,0.1-5.6,0.2
		c-0.4-0.2-0.5-1.2-0.1-1.5l1.9-0.2c1.4-0.1,2.7-0.8,3.5-2.9c1-2.7,2.7-6.5,5.1-13l5.9-15.7c0.8-2.1,1.2-3.2,1-4.1
		c1.4-0.4,2.4-1.5,3-2.2c0.3,0,0.8,0.1,0.9,0.5c0.8,2.6,1.7,5.2,2.6,7.8l8,23.4c1.7,5,2.4,5.9,4.9,6.2l1.6,0.2
		c0.4,0.3,0.3,1.2,0,1.5c-2.4-0.1-4.4-0.2-7-0.2c-2.8,0-5,0.1-6.7,0.2c-0.5-0.2-0.5-1.2-0.1-1.5l1.7-0.2c1.2-0.1,2-0.5,2-1
		c0-0.6-0.3-1.7-0.8-3.1L679.8,492.1L679.8,492.1z"/>
	<path class="st1" d="M707.4,496c0,2.1,0.1,5.1,1.2,6.4c1.1,1.3,2.9,1.6,4.6,1.6c5.2,0,9.1-2.3,9.1-8.2c0-4.6-2.3-10-11.6-10
		c-3.1,0-3.4,0.3-3.4,1.5V496L707.4,496z M707.4,482.4c0,1.6,0.1,1.7,3,1.6c5.9-0.2,9.1-2,9.1-7.5c0-5.7-4.3-7.9-8.7-7.9
		c-1.3,0-2.2,0.1-2.7,0.3c-0.6,0.2-0.8,0.5-0.8,1.5V482.4L707.4,482.4z M702.6,474.7c0-4.3-0.2-5.4-2.9-5.6l-1.9-0.2
		c-0.5-0.3-0.4-1.2,0.1-1.5c3.1-0.3,7.1-0.5,12.5-0.5c3.7,0,7.2,0.3,9.8,1.6c2.5,1.2,4.4,3.6,4.4,7.3c0,4.2-2.4,6.3-5.9,8
		c0,0.6,0.5,0.8,1.1,0.9c3.1,0.6,7.8,3.5,7.8,9.7c0,6.8-5,11.3-15.5,11.3c-1.7,0-4.5-0.2-7-0.2c-2.6,0-4.5,0.1-6.7,0.2
		c-0.3-0.2-0.5-1.1-0.1-1.5l1.1-0.2c3.1-0.5,3.2-1.2,3.2-7.3V474.7L702.6,474.7z"/>
	<path class="st1" d="M769.7,488c0-9.6-4.3-20-15.4-20c-6.1,0-13.9,4.1-13.9,16.9c0,8.6,4.2,19.8,15.7,19.8
		C763,504.7,769.7,499.4,769.7,488 M734.5,486.7c0-11.7,8.7-20.6,20.7-20.6c13.5,0,20.2,9.7,20.2,20c0,11.8-9,20.3-20.2,20.3
		C742.4,506.5,734.5,497.2,734.5,486.7"/>
	<path class="st1" d="M790.3,484.2c0,1,0,1.7,0.2,1.9c0.2,0.2,1,0.3,4,0.3c2.1,0,4.3-0.2,6-1.5c1.6-1.2,2.9-3.3,2.9-7.2
		c0-4.6-2.9-9-9.3-9c-3.6,0-3.8,0.2-3.8,1.9V484.2L790.3,484.2z M785.6,475.9c0-5.5-0.2-6.5-2.6-6.8l-1.9-0.2
		c-0.4-0.3-0.4-1.2,0.1-1.5c3.3-0.3,7.3-0.5,13-0.5c3.6,0,7,0.3,9.7,1.7c2.8,1.5,4.8,4.1,4.8,8.2c0,5.5-4.4,8.6-7.3,9.7
		c-0.3,0.3,0,0.9,0.3,1.4c4.7,7.5,7.7,12.2,11.7,15.5c1,0.9,2.4,1.5,4,1.6c0.3,0.1,0.3,0.6,0.1,0.8c-0.5,0.2-1.5,0.3-2.6,0.3
		c-5,0-7.9-1.5-12.1-7.3c-1.5-2.2-3.9-6.2-5.7-8.8c-0.9-1.3-1.8-1.9-4.1-1.9c-2.6,0-2.7,0.1-2.7,1.3v7.3c0,6.1,0.1,6.8,3.5,7.3
		l1.2,0.2c0.4,0.3,0.2,1.3-0.1,1.5c-2.6-0.1-4.6-0.2-6.9-0.2c-2.4,0-4.5,0.1-7.3,0.2c-0.3-0.2-0.5-1-0.1-1.5l1.5-0.2
		c3.4-0.4,3.5-1.2,3.5-7.3V475.9L785.6,475.9z"/>
	<path class="st1" d="M830.7,486.9c-0.5,1.3-0.4,1.4,1.2,1.4h7.2c1.7,0,1.8-0.2,1.3-1.8l-3.1-9.5c-0.5-1.4-1-3-1.3-3.7h-0.1
		c-0.2,0.3-0.8,1.7-1.4,3.4L830.7,486.9L830.7,486.9z M842.3,492.1c-0.4-1.3-0.6-1.5-2.4-1.5h-8.8c-1.5,0-1.8,0.2-2.2,1.4l-2,6.1
		c-0.9,2.6-1.3,4.2-1.3,4.8c0,0.7,0.3,1,1.7,1.2l1.9,0.2c0.4,0.3,0.4,1.2-0.1,1.5c-1.5-0.1-3.3-0.1-6.1-0.2c-1.9,0-4,0.1-5.6,0.2
		c-0.4-0.2-0.5-1.2-0.1-1.5l1.9-0.2c1.4-0.1,2.7-0.8,3.5-2.9c1-2.7,2.7-6.5,5.1-13l5.9-15.7c0.8-2.1,1.2-3.2,1-4.1
		c1.4-0.4,2.4-1.5,3-2.2c0.4,0,0.8,0.1,0.9,0.5c0.8,2.6,1.7,5.2,2.6,7.8l8,23.4c1.7,5,2.4,5.9,4.9,6.2l1.6,0.2
		c0.4,0.3,0.3,1.2,0,1.5c-2.4-0.1-4.4-0.2-7-0.2c-2.8,0-5,0.1-6.7,0.2c-0.5-0.2-0.5-1.2-0.1-1.5l1.7-0.2c1.2-0.1,2-0.5,2-1
		c0-0.6-0.3-1.7-0.8-3.1L842.3,492.1L842.3,492.1z"/>
	<path class="st1" d="M873.3,496.8c0,6.1,0.1,7,3.5,7.3l1.9,0.2c0.3,0.2,0.2,1.3-0.1,1.5c-3.3-0.1-5.3-0.2-7.6-0.2
		c-2.3,0-4.4,0.1-8.1,0.2c-0.3-0.2-0.5-1.2,0-1.5l2.1-0.2c3.3-0.3,3.6-1.2,3.6-7.3v-26c0-1.8,0-1.9-1.7-1.9h-3.2
		c-2.5,0-5.7,0.1-7.2,1.5c-1.4,1.3-2,2.6-2.6,4c-0.5,0.3-1.3,0.1-1.5-0.4c0.9-2.6,1.8-6.4,2.2-8.7c0.2-0.1,0.9-0.2,1.1,0
		c0.3,1.9,2.3,1.8,5,1.8h23.6c3.1,0,3.7-0.1,4.5-1.6c0.3-0.1,0.9-0.1,1.1,0.2c-0.6,2.4-1.1,7.1-0.9,8.9c-0.2,0.5-1.2,0.5-1.5,0.1
		c-0.2-1.5-0.6-3.6-1.5-4.3c-1.3-1-3.6-1.5-6.8-1.5H875c-1.7,0-1.7,0.1-1.7,2V496.8L873.3,496.8z"/>
	<path class="st1" d="M928.1,488c0-9.6-4.3-20-15.4-20c-6.1,0-13.9,4.1-13.9,16.9c0,8.6,4.2,19.8,15.7,19.8
		C921.4,504.7,928.1,499.4,928.1,488 M892.9,486.7c0-11.7,8.7-20.6,20.7-20.6c13.5,0,20.2,9.7,20.2,20c0,11.8-9,20.3-20.2,20.3
		C900.7,506.5,892.9,497.2,892.9,486.7"/>
	<path class="st1" d="M950.2,484.2c0,1,0,1.7,0.2,1.9c0.2,0.2,1,0.3,4,0.3c2.1,0,4.3-0.2,6-1.5c1.6-1.2,2.9-3.3,2.9-7.2
		c0-4.6-2.9-9-9.3-9c-3.6,0-3.8,0.2-3.8,1.9V484.2L950.2,484.2z M945.4,475.9c0-5.5-0.2-6.5-2.6-6.8l-1.9-0.2
		c-0.4-0.3-0.4-1.2,0.1-1.5c3.3-0.3,7.3-0.5,13-0.5c3.6,0,7,0.3,9.7,1.7c2.8,1.5,4.8,4.1,4.8,8.2c0,5.5-4.4,8.6-7.3,9.7
		c-0.3,0.3,0,0.9,0.3,1.4c4.7,7.5,7.7,12.2,11.7,15.5c1,0.9,2.4,1.5,4,1.6c0.3,0.1,0.3,0.6,0.1,0.8c-0.5,0.2-1.5,0.3-2.6,0.3
		c-5,0-7.9-1.5-12.1-7.3c-1.5-2.2-3.9-6.2-5.7-8.8c-0.9-1.3-1.8-1.9-4.1-1.9c-2.6,0-2.7,0.1-2.7,1.3v7.3c0,6.1,0.1,6.8,3.5,7.3
		l1.2,0.2c0.4,0.3,0.2,1.3-0.1,1.5c-2.6-0.1-4.6-0.2-6.9-0.2c-2.4,0-4.5,0.1-7.3,0.2c-0.3-0.2-0.5-1-0.1-1.5l1.5-0.2
		c3.4-0.4,3.5-1.2,3.5-7.3V475.9L945.4,475.9z"/>
	<path class="st1" d="M993.6,496.7c0,6.2,0.4,7.2,3.5,7.4l2.2,0.2c0.4,0.3,0.2,1.3-0.1,1.5c-3.6-0.1-5.6-0.2-7.9-0.2
		c-2.4,0-4.5,0.1-7.6,0.2c-0.3-0.2-0.5-1.1-0.1-1.5l1.8-0.2c3.4-0.3,3.5-1.2,3.5-7.4v-3c0-3.2-0.2-4-1.9-7.2l-6.9-13.4
		c-2-3.8-2.9-4.1-4.6-4.4l-1.6-0.3c-0.4-0.4-0.3-1.2,0.1-1.5c1.9,0.1,4,0.2,6.8,0.2c2.7,0,4.8-0.1,6.2-0.2c0.5,0.2,0.5,1.1,0.2,1.5
		l-0.8,0.1c-2,0.3-2.4,0.6-2.4,1c0,0.6,1.5,3.9,1.8,4.5c2.2,4.3,4.3,8.9,6.6,12.9c1.8-3.1,3.7-6.5,5.5-9.8c1.6-3,3.8-7,3.8-7.7
		c0-0.3-1-0.8-2.4-0.9l-1-0.1c-0.4-0.4-0.4-1.2,0.1-1.5c2.1,0.1,3.8,0.2,5.6,0.2c1.8,0,3.4-0.1,5.4-0.2c0.5,0.3,0.5,1.1,0.1,1.5
		l-1.6,0.3c-3,0.5-4.8,4.2-7.7,9.2l-3.7,6.4c-2.6,4.4-2.7,4.9-2.7,9.4V496.7L993.6,496.7z"/>
</g>
</svg>
