<?xml version="1.0" encoding="utf-8"?>
<!-- Generator: Adobe Illustrator 27.6.1, SVG Export Plug-In . SVG Version: 6.00 Build 0)  -->
<svg version="1.1" id="Layer_1" xmlns="http://www.w3.org/2000/svg" xmlns:xlink="http://www.w3.org/1999/xlink" x="0px" y="0px"
	 viewBox="0 0 1100.7 600" style="enable-background:new 0 0 1100.7 600;" xml:space="preserve">
<style type="text/css">
	.st0{display:none;fill:#203A70;}
	.st1{fill:#221F1F;}
	.st2{clip-path:url(#SVGID_00000047781270002703896960000009197405049331552137_);fill:#221F1F;}
	.st3{clip-path:url(#SVGID_00000103258466814199296070000014428841324065776056_);fill:#221F1F;}
	.st4{clip-path:url(#SVGID_00000124164068449378145740000006291291486896373388_);fill:#221F1F;}
	.st5{fill:#002D72;}
	.st6{clip-path:url(#SVGID_00000089571190304059524720000003509089104772334465_);fill:#002D72;}
	.st7{clip-path:url(#SVGID_00000101784595607201027410000012221378217400284816_);fill:#002D72;}
	.st8{clip-path:url(#SVGID_00000134246503578686600220000001670803951820246428_);fill:#002D72;}
	.st9{fill:#FFFFFF;}
	.st10{clip-path:url(#SVGID_00000142860454778376748240000001512880256089865352_);fill:#FFFFFF;}
	.st11{clip-path:url(#SVGID_00000109005573538269086720000004412411372528351162_);fill:#FFFFFF;}
	.st12{clip-path:url(#SVGID_00000139284070437596225080000000964980059479366826_);fill:#FFFFFF;}
	.st13{clip-path:url(#SVGID_00000018206032775952779770000004460982208024627603_);fill:#221F1F;}
	.st14{clip-path:url(#SVGID_00000031199904631434133490000004869224078135307427_);fill:#221F1F;}
	.st15{clip-path:url(#SVGID_00000144314315153776250400000006037924588654024584_);fill:#221F1F;}
	.st16{clip-path:url(#SVGID_00000013185722766328396210000012713213160783680445_);fill:#002D72;}
	.st17{clip-path:url(#SVGID_00000147219597544994402880000001220377594480004485_);fill:#002D72;}
	.st18{clip-path:url(#SVGID_00000099645633018284320200000002398666309954625688_);fill:#FFFFFF;}
	.st19{clip-path:url(#SVGID_00000123413476384931537110000009088562058154217645_);fill:#FFFFFF;}
</style>
<rect class="st0" width="1100.7" height="600"/>
<g>
	<path class="st9" d="M549.2,180.8v-35.9c9.9,0,17.9,8.1,17.9,17.9C567.1,172.8,559.1,180.8,549.2,180.8 M549.2,136.3L549.2,136.3
		h-8.6v72.9h8.6v-19.8c14.7,0,26.5-11.9,26.5-26.6C575.8,148.2,563.9,136.3,549.2,136.3"/>
	<path class="st9" d="M525.1,152v28.5h-21.6C508.2,169.3,515.7,159.5,525.1,152 M489.1,209.2h8.5c0-6.8,0.9-13.5,2.7-19.7h24.7
		l0,19.7h8.6v-72.9C507.3,149.9,489.1,177.4,489.1,209.2"/>
	<g>
		<defs>
			<polygon id="SVGID_00000158738603677481297290000005490425294664981407_" points="457.6,294.9 647,294.9 647,90.8 457.6,90.8 
				457.6,294.9 			"/>
		</defs>
		<clipPath id="SVGID_00000145021079925481115500000007865212798406412970_">
			<use xlink:href="#SVGID_00000158738603677481297290000005490425294664981407_"  style="overflow:visible;"/>
		</clipPath>
		<polygon style="clip-path:url(#SVGID_00000145021079925481115500000007865212798406412970_);fill:#FFFFFF;" points="588.9,136.3 
			580.3,136.3 580.3,209.2 580.9,209.2 588.9,209.2 616.9,209.2 616.9,200.9 588.9,200.9 588.9,136.3 		"/>
		<path style="clip-path:url(#SVGID_00000145021079925481115500000007865212798406412970_);fill:#FFFFFF;" d="M640.8,125.7
			c0,101.8-60.4,147.7-86.3,161.4c-1.4,0.8-2.7,0.9-4.4,0c-26-13.8-86.3-59.6-86.3-161.4l0-15.4c0-2.1,1.4-3.8,3.4-4.3l0.1,0
			c27.4-5.9,55.9-9,85-9c29.1,0,57.5,3.1,84.9,9l0.1,0c2,0.4,3.5,2.2,3.5,4.3V125.7L640.8,125.7z M639.6,100.2l-0.1-0.1l-0.9-0.2
			c-28.2-6-57.2-9.1-86.2-9.1c-29,0-58.1,3.1-86.3,9.1l-0.1,0l-0.2,0.1c-4.7,1.2-8,5.4-8,10.3l0,15.4c0,110.8,68.6,155.7,89.6,166.9
			c1.7,0.9,3.4,1.4,5.2,1.4c1.8,0,3.5-0.5,5.2-1.4c20.9-11.1,89.5-56,89.5-166.8v-15.4C647,105.7,643.9,101.6,639.6,100.2"/>
	</g>
	<path class="st9" d="M150.6,345.9c0-14.9-1.3-16.5-9.2-17.1l-3.3-0.3c-0.8-0.5-0.5-2.9,0.3-3.3c7.8,0.3,12.3,0.4,17.9,0.4
		c5.4,0,9.9-0.1,15.3-0.4c0.8,0.4,1.1,2.8,0.3,3.3l-2,0.3c-7.9,1.1-8.2,2.9-8.2,17.1v49.7c0,10.6-0.5,19.8-3.1,26
		c-4.4,10.7-13.9,19.3-26.4,19.3c-1.6,0-5.7-0.1-5.7-2.8c0-2.3,2-6.2,4.8-6.2c1.6,0,3.2,0.3,5,0.8c1.9,0.5,3.7,0.9,5.6,0.9
		c2.8,0,4.4-1.6,5.4-3.5c3.1-6.3,3.5-26.4,3.5-33.6V345.9L150.6,345.9z"/>
	<path class="st9" d="M239.5,379.8c0-18.6-8.2-38.7-29.8-38.7c-11.7,0-27,8-27,32.8c0,16.7,8.1,38.4,30.4,38.4
		C226.6,412.2,239.5,402,239.5,379.8 M171.4,377.4c0-22.6,16.9-39.9,40.2-39.9c26.1,0,39.2,18.9,39.2,38.7
		c0,22.8-17.4,39.4-39.2,39.4C186.6,415.7,171.4,397.7,171.4,377.4"/>
	<path class="st9" d="M276.5,377.4c-5.4,0-5.6,0.2-5.6,3.6v15.9c0,11.9,0.6,13.4,6.9,14.1l3.3,0.3c0.7,0.4,0.5,2.5-0.2,2.8
		c-6.1-0.2-9.9-0.3-14.3-0.3c-4.9,0-8.7,0.2-13.1,0.3c-0.7-0.3-0.9-2.2-0.2-2.8l1.9-0.3c6.3-1.1,6.6-2.3,6.6-14.1v-40.6
		c0-11.9-0.8-13.8-6.7-14.2l-2.9-0.2c-0.7-0.5-0.4-2.5,0.2-2.8c5.5,0.1,9.4,0.3,14.2,0.3c4.4,0,8.2-0.1,13.1-0.3
		c0.7,0.3,0.9,2.4,0.2,2.8l-2.1,0.2c-6.5,0.7-6.8,2.4-6.8,14.2v13c0,3.5,0.2,3.6,5.6,3.6h32.3c5.4,0,5.7-0.1,5.7-3.6v-13
		c0-11.9-0.2-13.6-6.9-14.2l-2.1-0.2c-0.7-0.5-0.5-2.5,0.2-2.8c5.2,0.2,9,0.3,13.7,0.3c4.4,0,8.2-0.1,13.3-0.3
		c0.7,0.3,0.9,2.4,0.2,2.8l-2.4,0.2c-6.5,0.7-6.8,2.4-6.8,14.2v40.6c0,11.9,0.2,13.3,6.8,14.1l2.7,0.3c0.7,0.4,0.5,2.5-0.2,2.8
		c-5.4-0.2-9.2-0.3-13.7-0.3c-4.6,0-8.7,0.1-13.7,0.3c-0.7-0.3-0.9-2.2-0.2-2.8l2.1-0.3c6.9-1.1,6.9-2.3,6.9-14.1V381
		c0-3.4-0.2-3.6-5.7-3.6H276.5L276.5,377.4z"/>
	<path class="st9" d="M410.3,394.7c0,3.4,0,16.8,0.3,19.8c-0.2,0.7-0.9,1.2-2.1,1.2c-1.4-1.9-4.6-5.9-14.5-17l-26.2-29.8
		c-3-3.5-10.7-12.8-13.1-15.2h-0.2c-0.5,1.4-0.6,3.9-0.6,7.3v24.6c0,5.3,0.1,20,2,23.4c0.7,1.3,2.9,1.9,5.8,2.2l3.5,0.3
		c0.7,0.9,0.6,2.3-0.2,2.8c-5.1-0.2-9-0.3-13.2-0.3c-4.7,0-7.8,0.1-11.7,0.3c-0.8-0.6-0.9-2.2-0.2-2.8l3.1-0.3c2.6-0.3,4.4-1,5-2.3
		c1.6-4.1,1.5-17.8,1.5-23.3v-32.6c0-3.2-0.1-5.5-2.5-8.1c-1.6-1.6-4.3-2.4-7-2.7l-1.9-0.2c-0.7-0.7-0.7-2.4,0.2-2.8
		c4.7,0.3,10.7,0.3,12.8,0.3c1.8,0,3.7-0.1,5.2-0.3c2.3,5.8,15.6,20.7,19.3,24.8l11,12.3c7.8,8.7,13.3,15,18.6,20.4h0.2
		c0.5-0.6,0.5-2.4,0.5-4.7v-24.2c0-5.3-0.1-20-2.3-23.4c-0.7-1-2.5-1.7-7-2.3l-1.9-0.2c-0.8-0.7-0.7-2.5,0.2-2.8
		c5.2,0.2,9,0.3,13.3,0.3c4.9,0,7.8-0.1,11.6-0.3c0.9,0.6,0.9,2.2,0.2,2.8l-1.6,0.2c-3.6,0.6-5.9,1.5-6.3,2.4
		c-1.9,4.1-1.7,18.1-1.7,23.3V394.7L410.3,394.7z"/>
	<g>
		<defs>
			<polygon id="SVGID_00000047031834001319993060000001091351405582314416_" points="126.3,440.8 973.2,440.8 973.2,325.1 
				126.3,325.1 126.3,440.8 			"/>
		</defs>
		<clipPath id="SVGID_00000037652618141915172130000012791006448780847744_">
			<use xlink:href="#SVGID_00000047031834001319993060000001091351405582314416_"  style="overflow:visible;"/>
		</clipPath>
		<path style="clip-path:url(#SVGID_00000037652618141915172130000012791006448780847744_);fill:#FFFFFF;" d="M440.1,415.7
			c-9.5,0-15.5-2.9-17.6-4.2c-1.4-2.5-2.8-10.5-3.1-15.8c0.6-0.8,2.3-1,2.7-0.3c1.7,5.7,6.3,16.8,19.4,16.8c9.5,0,14.1-6.2,14.1-13
			c0-5-1-10.5-9.3-15.8l-10.7-7c-5.6-3.7-12.2-10.2-12.2-19.4c0-10.7,8.4-19.4,23-19.4c3.5,0,7.6,0.7,10.5,1.5
			c1.5,0.5,3,0.7,3.9,0.7c1,2.7,2,9,2,13.8c-0.5,0.7-2.3,1-2.8,0.3c-1.5-5.4-4.5-12.8-15.4-12.8c-11.1,0-13.4,7.3-13.4,12.5
			c0,6.5,5.4,11.3,9.6,13.9l9,5.6c7.1,4.4,14.1,11,14.1,21.7C464.2,407.2,454.8,415.7,440.1,415.7"/>
		<path style="clip-path:url(#SVGID_00000037652618141915172130000012791006448780847744_);fill:#FFFFFF;" d="M531.2,370.6
			c-6.4,0-6.7,0.3-6.7,4.3v18.9c0,14,0.7,15.9,8.2,16.7l3.9,0.4c0.8,0.5,0.5,2.9-0.3,3.3c-7.2-0.3-11.8-0.4-17-0.4
			c-5.8,0-10.3,0.3-15.5,0.4c-0.8-0.4-1.1-2.5-0.3-3.3l2.3-0.4c7.5-1.3,7.8-2.7,7.8-16.7v-48.2c0-14.1-0.9-16.3-7.9-16.9l-3.5-0.3
			c-0.8-0.5-0.5-2.9,0.3-3.3c6.6,0.1,11.1,0.4,16.9,0.4c5.2,0,9.8-0.1,15.5-0.4c0.8,0.4,1.1,2.8,0.3,3.3l-2.5,0.3
			c-7.8,0.8-8,2.8-8,16.9V361c0,4.1,0.3,4.3,6.7,4.3h38.3c6.4,0,6.7-0.1,6.7-4.3v-15.4c0-14.1-0.3-16.1-8.2-16.9l-2.5-0.3
			c-0.8-0.5-0.5-2.9,0.3-3.3c6.1,0.3,10.7,0.4,16.2,0.4c5.2,0,9.8-0.1,15.8-0.4c0.8,0.4,1.1,2.8,0.3,3.3l-2.8,0.3
			c-7.8,0.8-8,2.8-8,16.9v48.2c0,14,0.3,15.8,8,16.7l3.2,0.4c0.8,0.5,0.5,2.9-0.3,3.3c-6.4-0.3-11-0.4-16.2-0.4
			c-5.5,0-10.3,0.1-16.2,0.4c-0.8-0.4-1.1-2.5-0.3-3.3l2.5-0.4c8.2-1.3,8.2-2.7,8.2-16.7v-18.9c0-4-0.3-4.3-6.7-4.3H531.2
			L531.2,370.6z"/>
	</g>
	<path class="st9" d="M665.6,379.8c0-18.6-8.2-38.7-29.8-38.7c-11.7,0-27,8-27,32.8c0,16.7,8.1,38.4,30.4,38.4
		C652.8,412.2,665.6,402,665.6,379.8 M597.5,377.4c0-22.6,16.9-39.9,40.2-39.9c26.1,0,39.2,18.9,39.2,38.7
		c0,22.8-17.4,39.4-39.2,39.4C612.7,415.7,597.5,397.7,597.5,377.4"/>
	<path class="st9" d="M697.3,396.9c0,11.9,0.2,13.3,7.5,14.1l3,0.3c0.7,0.6,0.5,2.5-0.2,2.8c-6.4-0.2-10.2-0.3-14.7-0.3
		c-4.7,0-8.8,0.1-13.8,0.3c-0.7-0.3-0.9-2.2-0.2-2.8l2.4-0.3c6.5-0.9,6.8-2.3,6.8-14.1v-41.7c0-9.6-0.2-11.5-5.3-12.1l-4.1-0.5
		c-0.8-0.7-0.7-2.4,0.2-2.8c6-0.8,13-0.9,22.3-0.9c9.4,0,16.4,1.2,21.7,4.5c5.2,3.3,9,9.1,9,16.9c0,10.4-6.4,15.6-11.3,18
		c-5,2.4-11,3.4-15.6,3.4c-0.8-0.3-0.8-2-0.1-2.2c12.2-2.3,16.6-9.2,16.6-19c0-11-6.4-18.1-18.2-18.1c-6,0-6.1,0.4-6.1,4.1V396.9
		L697.3,396.9z"/>
	<path class="st9" d="M744.3,356.3c0-11.9-0.2-13.7-6.8-14.2l-2.8-0.2c-0.7-0.5-0.4-2.5,0.2-2.8c5.5,0.2,9.1,0.3,14.2,0.3
		c4.4,0,8.2-0.1,13.1-0.3c0.7,0.3,0.9,2.4,0.2,2.8l-2.1,0.2c-6.5,0.7-6.8,2.4-6.8,14.2v13c0,2.1,0.2,4.3,1.5,4.3
		c1,0,2.4-0.7,3.2-1.2c1.6-1.4,4.5-4.3,5.8-5.4l12.2-12.1c2.1-2,7.7-7.8,8.8-9.4c0.6-0.8,0.8-1.4,0.8-1.8c0-0.4-0.5-0.8-1.9-1.1
		l-3-0.7c-0.8-0.8-0.7-2.3,0.2-2.8c4,0.2,8.5,0.3,12.4,0.3c4,0,7.8-0.1,11.2-0.3c0.8,0.6,0.9,2.2,0.2,2.8c-2.9,0.2-7.3,1.4-10.5,3.2
		c-3.2,1.8-9.5,7.1-15.8,13.1l-10.2,9.6c-1.6,1.6-2.6,2.6-2.6,3.5c0,0.8,0.7,1.7,2.2,3.5c10.7,12.3,19.4,22.5,28.2,31.7
		c2.7,2.7,4.8,4.2,8.6,4.6l2.2,0.3c0.8,0.6,0.6,2.5-0.2,2.8c-2.9-0.2-6-0.3-11.3-0.3c-4.6,0-8.6,0.1-13.8,0.3
		c-0.8-0.2-1.1-2.2-0.5-2.8l2.6-0.5c1.6-0.2,2.7-0.6,2.7-1.1c0-0.7-0.8-1.6-1.6-2.6c-2.2-2.7-5.1-5.8-9.4-10.6l-9-10.2
		c-6.4-7.2-8.2-9.5-11-9.5c-1.7,0-1.9,1.5-1.9,5.4v14.6c0,11.9,0.2,13.4,6.5,14.1l3.1,0.3c0.7,0.5,0.5,2.5-0.2,2.8
		c-5.5-0.2-9.4-0.3-13.8-0.3c-4.6,0-8.5,0.1-13.1,0.3c-0.7-0.3-0.9-2-0.2-2.8l2.3-0.3c6-0.9,6.2-2.3,6.2-14.1V356.3L744.3,356.3z"/>
	<path class="st9" d="M821.8,356.5c0-12-0.2-13.9-6.9-14.5l-2.8-0.2c-0.7-0.5-0.5-2.5,0.2-2.8c5.6,0.2,9.5,0.3,14.2,0.3
		c4.5,0,8.4-0.1,14-0.3c0.7,0.3,0.9,2.4,0.2,2.8l-2.8,0.2c-6.7,0.6-6.9,2.5-6.9,14.5v40.2c0,12,0.2,13.6,6.9,14.3l2.8,0.3
		c0.7,0.5,0.5,2.5-0.2,2.8c-5.6-0.2-9.5-0.3-14-0.3c-4.7,0-8.2,0.1-13.8,0.3c-0.7-0.3-0.9-2.2-0.2-2.8l2.4-0.3
		c6.7-0.8,6.9-2.4,6.9-14.3V356.5L821.8,356.5z"/>
	<path class="st9" d="M919.5,394.7c0,3.4,0,16.8,0.3,19.8c-0.2,0.7-0.9,1.2-2.2,1.2c-1.4-1.9-4.6-5.9-14.5-17l-26.2-29.8
		c-3-3.5-10.7-12.8-13.1-15.2h-0.2c-0.5,1.4-0.6,3.9-0.6,7.3v24.6c0,5.3,0.1,20,2,23.4c0.7,1.3,2.9,1.9,5.8,2.2l3.5,0.3
		c0.7,0.9,0.6,2.3-0.2,2.8c-5.1-0.2-9-0.3-13.2-0.3c-4.7,0-7.8,0.1-11.7,0.3c-0.8-0.6-0.9-2.2-0.2-2.8l3.1-0.3c2.6-0.3,4.4-1,5-2.3
		c1.6-4.1,1.5-17.8,1.5-23.3v-32.6c0-3.2-0.1-5.5-2.5-8.1c-1.6-1.6-4.3-2.4-7-2.7l-1.9-0.2c-0.7-0.7-0.7-2.4,0.2-2.8
		c4.7,0.3,10.7,0.3,12.8,0.3c1.8,0,3.7-0.1,5.2-0.3c2.3,5.8,15.6,20.7,19.3,24.8l11,12.3c7.8,8.7,13.3,15,18.6,20.4h0.2
		c0.5-0.6,0.5-2.4,0.5-4.7v-24.2c0-5.3-0.1-20-2.3-23.4c-0.7-1-2.5-1.7-7-2.3l-1.9-0.2c-0.8-0.7-0.7-2.5,0.2-2.8
		c5.2,0.2,9,0.3,13.3,0.3c4.9,0,7.8-0.1,11.6-0.3c0.9,0.6,0.9,2.2,0.2,2.8l-1.6,0.2c-3.6,0.6-5.9,1.5-6.3,2.4
		c-1.9,4.1-1.7,18.1-1.7,23.3V394.7L919.5,394.7z"/>
	<path class="st9" d="M949.2,415.7c-9.5,0-15.5-2.9-17.6-4.2c-1.4-2.5-2.8-10.5-3.1-15.8c0.6-0.8,2.3-1,2.7-0.3
		c1.7,5.7,6.3,16.8,19.4,16.8c9.5,0,14.1-6.2,14.1-13c0-5-1-10.5-9.3-15.8l-10.7-7c-5.7-3.7-12.2-10.2-12.2-19.4
		c0-10.7,8.4-19.4,23-19.4c3.5,0,7.6,0.7,10.5,1.5c1.5,0.5,3,0.7,3.9,0.7c1,2.7,2,9,2,13.8c-0.5,0.7-2.3,1-2.8,0.3
		c-1.5-5.4-4.5-12.8-15.3-12.8c-11.1,0-13.4,7.3-13.4,12.5c0,6.5,5.4,11.3,9.6,13.9l9,5.6c7.1,4.4,14.1,11,14.1,21.7
		C973.2,407.2,963.8,415.7,949.2,415.7"/>
	<path class="st9" d="M102.8,484.1c-0.5,1.3-0.4,1.4,1.2,1.4h7.2c1.7,0,1.8-0.2,1.3-1.8l-3.2-9.5c-0.5-1.4-1-3-1.3-3.7h-0.1
		c-0.2,0.3-0.8,1.7-1.4,3.4L102.8,484.1L102.8,484.1z M114.4,489.3c-0.4-1.3-0.6-1.5-2.4-1.5h-8.8c-1.5,0-1.8,0.2-2.2,1.4l-2,6.1
		c-0.9,2.6-1.3,4.2-1.3,4.8c0,0.7,0.3,1,1.7,1.2l1.9,0.2c0.4,0.3,0.4,1.2-0.1,1.5c-1.5-0.1-3.3-0.1-6.1-0.2c-1.9,0-4,0.1-5.6,0.2
		c-0.4-0.2-0.5-1.2-0.1-1.5l1.9-0.2c1.4-0.1,2.7-0.8,3.5-2.9c1-2.7,2.7-6.5,5.1-13l6-15.8c0.8-2.1,1.2-3.2,1-4.1
		c1.4-0.4,2.4-1.5,3-2.2c0.3,0,0.8,0.1,0.9,0.5c0.8,2.6,1.7,5.3,2.6,7.8l8,23.5c1.7,5,2.5,5.9,5,6.2l1.6,0.2c0.4,0.3,0.3,1.2,0,1.5
		c-2.4-0.1-4.4-0.2-7.1-0.2c-2.8,0-5,0.1-6.7,0.2c-0.5-0.2-0.5-1.2-0.1-1.5l1.7-0.2c1.2-0.1,2-0.5,2-1c0-0.6-0.3-1.7-0.8-3.1
		L114.4,489.3L114.4,489.3z"/>
	<path class="st9" d="M142.2,494.1c0,6.1,0.1,6.9,3.9,7.3l1.6,0.2c0.4,0.3,0.2,1.3-0.1,1.5c-3.3-0.1-5.3-0.2-7.6-0.2
		c-2.5,0-4.5,0.1-7.1,0.2c-0.4-0.2-0.5-1.1-0.1-1.5l1.2-0.2c3.4-0.5,3.5-1.2,3.5-7.3v-21.5c0-5-0.1-6-2.7-6.2l-2.1-0.2
		c-0.4-0.3-0.3-1.2,0.1-1.5c3.1-0.4,6.7-0.5,11.6-0.5c4.8,0,8.5,0.6,11.2,2.3c2.7,1.7,4.7,4.7,4.7,8.8c0,5.4-3.3,8.1-5.8,9.3
		c-2.6,1.2-5.7,1.8-8.1,1.8c-0.4-0.2-0.4-1-0.1-1.2c6.3-1.2,8.6-4.7,8.6-9.8c0-5.7-3.3-9.3-9.4-9.3c-3.1,0-3.2,0.2-3.2,2.1V494.1
		L142.2,494.1z"/>
	<path class="st9" d="M175.6,494.1c0,6.1,0.1,6.9,3.9,7.3l1.6,0.2c0.4,0.3,0.2,1.3-0.1,1.5c-3.3-0.1-5.3-0.2-7.6-0.2
		c-2.5,0-4.5,0.1-7.1,0.2c-0.4-0.2-0.5-1.1-0.1-1.5l1.2-0.2c3.4-0.5,3.5-1.2,3.5-7.3v-21.5c0-5-0.1-6-2.7-6.2l-2.1-0.2
		c-0.4-0.3-0.3-1.2,0.1-1.5c3.1-0.4,6.7-0.5,11.6-0.5c4.8,0,8.5,0.6,11.2,2.3c2.7,1.7,4.7,4.7,4.7,8.8c0,5.4-3.3,8.1-5.8,9.3
		c-2.6,1.2-5.7,1.8-8.1,1.8c-0.4-0.2-0.4-1-0.1-1.2c6.3-1.2,8.6-4.7,8.6-9.8c0-5.7-3.3-9.3-9.4-9.3c-3.1,0-3.2,0.2-3.2,2.1V494.1
		L175.6,494.1z"/>
	<path class="st9" d="M204.3,473.1c0-6.1-0.1-7.1-3.8-7.3l-1.5-0.1c-0.3-0.2-0.2-1.3,0.1-1.5c3.3,0.1,5.3,0.2,7.6,0.2
		c2.3,0,4.3-0.1,7.2-0.2c0.3,0.2,0.5,1.2,0.1,1.5l-1.4,0.1c-3.4,0.3-3.6,1.2-3.6,7.3v20.3c0,3.7,0.2,5.2,1.2,6.3
		c0.6,0.6,1.8,1.3,6.4,1.3c5,0,6.2-0.2,7.1-0.8c1.2-0.7,2.7-2.8,3.8-5.8c0.4-0.3,1.5-0.1,1.5,0.4c0,0.6-1.6,6.6-2.5,8.2
		c-3-0.1-8.5-0.2-14.5-0.2h-5.4c-2.5,0-4.3,0.1-7.6,0.2c-0.3-0.2-0.5-1.1-0.1-1.5l1.8-0.2c3.4-0.4,3.5-1.2,3.5-7.3V473.1
		L204.3,473.1z"/>
	<path class="st9" d="M239.4,473.2c0-6.2-0.1-7.2-3.6-7.5l-1.5-0.1c-0.3-0.2-0.2-1.3,0.1-1.5c2.9,0.1,4.9,0.2,7.4,0.2
		c2.3,0,4.3-0.1,7.2-0.2c0.4,0.2,0.5,1.2,0.1,1.5l-1.5,0.1c-3.4,0.3-3.6,1.3-3.6,7.5V494c0,6.2,0.1,7,3.6,7.4l1.5,0.2
		c0.4,0.2,0.2,1.3-0.1,1.5c-2.9-0.1-4.9-0.2-7.2-0.2c-2.5,0-4.4,0.1-7.4,0.2c-0.4-0.2-0.5-1.1-0.1-1.5l1.5-0.2
		c3.4-0.4,3.6-1.2,3.6-7.4V473.2L239.4,473.2z"/>
	<path class="st9" d="M262,473.1c0-6.1-0.1-6.9-3.6-7.3l-0.9-0.1c-0.4-0.2-0.2-1.3,0.1-1.5c2.5,0.1,4.5,0.2,6.9,0.2h11
		c3.7,0,7.2,0,7.9-0.2c0.3,1,0.7,5.2,0.9,7.8c-0.2,0.4-1.2,0.5-1.5,0.1c-0.9-2.7-1.4-4.8-4.4-5.5c-1.2-0.3-3.1-0.4-5.7-0.4h-4.2
		c-1.8,0-1.8,0.1-1.8,2.3v11.7c0,1.6,0.2,1.6,1.9,1.6h3.4c2.5,0,4.3-0.1,5-0.4c0.7-0.2,1.1-0.6,1.4-2l0.5-2.4
		c0.3-0.4,1.3-0.4,1.5,0.1c0,1.4-0.2,3.7-0.2,5.9c0,2.1,0.2,4.3,0.2,5.6c-0.2,0.4-1.2,0.4-1.5,0.1l-0.5-2.3c-0.2-1-0.6-1.9-1.8-2.2
		c-0.8-0.2-2.2-0.3-4.5-0.3h-3.4c-1.8,0-1.9,0.1-1.9,1.6v8.2c0,3.1,0.2,5.1,1.1,6.1c0.7,0.7,1.9,1.3,7.1,1.3c4.5,0,6.2-0.2,7.5-0.9
		c1-0.6,2.6-2.6,4.1-5.7c0.4-0.3,1.2-0.1,1.5,0.4c-0.4,2-1.9,6.5-2.6,8.1c-5.3-0.1-10.4-0.2-15.6-0.2h-5.3c-2.5,0-4.5,0.1-7.9,0.2
		c-0.3-0.2-0.5-1.1-0.1-1.5l1.9-0.2c3.3-0.3,3.6-1.2,3.6-7.3V473.1L262,473.1z"/>
	<path class="st9" d="M303.8,492.8c0,3.1,0.2,5,1.2,6.4c1.3,1.8,3.5,2.4,7.2,2.4c11.3,0,16.4-7.4,16.4-18.3
		c0-6.4-3.1-17.3-18.4-17.3c-3.4,0-5.3,0.5-5.8,0.8c-0.5,0.4-0.6,1.8-0.6,4.4V492.8L303.8,492.8z M299,471.9c0-4.1-0.3-5.3-2.7-5.7
		l-1.3-0.2c-0.5-0.3-0.5-1.2,0.1-1.5c5-0.3,9.7-0.5,14.7-0.5c4.9,0,9,0.3,12.8,1.8c7.9,2.9,11.8,9.5,11.8,17.2
		c0,7.4-3.6,13.8-10.2,17.4c-3.8,2-8.6,2.8-13.1,2.8c-3.7,0-7.5-0.5-9.5-0.5c-2.5,0-4.6,0.1-7.3,0.2c-0.3-0.2-0.5-1.1-0.1-1.5
		l1.3-0.2c3.4-0.5,3.5-1.2,3.5-7.3V471.9L299,471.9z"/>
	<path class="st9" d="M369.7,494.1c0,6.1,0.1,6.9,3.9,7.3l1.6,0.2c0.4,0.3,0.2,1.3-0.1,1.5c-3.3-0.1-5.3-0.2-7.6-0.2
		c-2.5,0-4.5,0.1-7.1,0.2c-0.4-0.2-0.5-1.1-0.1-1.5l1.2-0.2c3.4-0.5,3.5-1.2,3.5-7.3v-21.5c0-5-0.1-6-2.7-6.2l-2.1-0.2
		c-0.4-0.3-0.3-1.2,0.1-1.5c3.1-0.4,6.7-0.5,11.6-0.5c4.8,0,8.5,0.6,11.2,2.3c2.7,1.7,4.7,4.7,4.7,8.8c0,5.4-3.3,8.1-5.8,9.3
		c-2.6,1.2-5.7,1.8-8.1,1.8c-0.4-0.2-0.4-1-0.1-1.2c6.3-1.2,8.6-4.7,8.6-9.8c0-5.7-3.3-9.3-9.4-9.3c-3.1,0-3.2,0.2-3.2,2.1V494.1
		L369.7,494.1z"/>
	<path class="st9" d="M406.8,484c-2.8,0-2.9,0.1-2.9,1.9v8.2c0,6.1,0.3,6.9,3.6,7.3l1.7,0.2c0.3,0.2,0.2,1.3-0.1,1.5
		c-3.2-0.1-5.1-0.2-7.4-0.2c-2.5,0-4.5,0.1-6.8,0.2c-0.4-0.2-0.5-1.1-0.1-1.5l1-0.2c3.3-0.6,3.4-1.2,3.4-7.3v-21
		c0-6.1-0.4-7.1-3.4-7.3l-1.5-0.1c-0.4-0.2-0.2-1.3,0.1-1.5c2.9,0.1,4.8,0.2,7.4,0.2c2.3,0,4.3-0.1,6.8-0.2c0.3,0.2,0.5,1.2,0.1,1.5
		l-1.1,0.1c-3.4,0.3-3.5,1.2-3.5,7.3v6.7c0,1.8,0.1,1.9,2.9,1.9h16.7c2.8,0,2.9-0.1,2.9-1.9v-6.7c0-6.1-0.1-7-3.6-7.3l-1.1-0.1
		c-0.4-0.2-0.2-1.3,0.1-1.5c2.7,0.1,4.7,0.2,7.1,0.2c2.3,0,4.3-0.1,6.9-0.2c0.3,0.2,0.5,1.2,0.1,1.5l-1.2,0.1
		c-3.4,0.3-3.5,1.2-3.5,7.3v21c0,6.1,0.1,6.9,3.5,7.3l1.4,0.2c0.3,0.2,0.2,1.3-0.1,1.5c-2.8-0.1-4.8-0.2-7.1-0.2
		c-2.4,0-4.5,0.1-7.1,0.2c-0.3-0.2-0.5-1.1-0.1-1.5l1.1-0.2c3.6-0.6,3.6-1.2,3.6-7.3v-8.2c0-1.8-0.1-1.9-2.9-1.9H406.8L406.8,484z"
		/>
	<path class="st9" d="M461.1,494c0,6.2,0.4,7.2,3.5,7.4l2.2,0.2c0.4,0.3,0.2,1.3-0.1,1.5c-3.6-0.1-5.6-0.2-7.9-0.2
		c-2.5,0-4.5,0.1-7.6,0.2c-0.3-0.2-0.5-1.1-0.1-1.5l1.8-0.2c3.4-0.3,3.5-1.2,3.5-7.4v-3c0-3.2-0.2-4-1.9-7.2l-6.9-13.4
		c-2-3.9-2.9-4.1-4.6-4.4l-1.6-0.3c-0.4-0.4-0.3-1.2,0.1-1.5c1.9,0.1,4,0.2,6.8,0.2c2.7,0,4.8-0.1,6.2-0.2c0.5,0.2,0.5,1.1,0.2,1.5
		l-0.8,0.1c-2,0.3-2.5,0.6-2.5,1c0,0.6,1.5,3.9,1.8,4.5c2.2,4.3,4.3,8.9,6.6,13c1.8-3.1,3.7-6.5,5.5-9.9c1.6-3,3.8-7,3.8-7.7
		c0-0.3-1-0.8-2.5-0.9l-1-0.1c-0.4-0.4-0.4-1.2,0.1-1.5c2.1,0.1,3.8,0.2,5.6,0.2c1.8,0,3.4-0.1,5.4-0.2c0.5,0.3,0.5,1.1,0.1,1.5
		l-1.6,0.3c-3,0.5-4.8,4.2-7.7,9.2l-3.7,6.4c-2.6,4.4-2.7,5-2.7,9.4V494L461.1,494z"/>
	<path class="st9" d="M491,503.8c-4.9,0-8-1.5-9.1-2.2c-0.7-1.3-1.5-5.4-1.6-8.2c0.3-0.4,1.2-0.5,1.4-0.2c0.9,3,3.3,8.7,10,8.7
		c4.9,0,7.3-3.2,7.3-6.7c0-2.6-0.5-5.4-4.8-8.2l-5.5-3.6c-2.9-1.9-6.3-5.3-6.3-10c0-5.5,4.3-10,11.9-10c1.8,0,3.9,0.3,5.4,0.8
		c0.8,0.2,1.6,0.4,2,0.4c0.5,1.4,1,4.7,1,7.1c-0.2,0.3-1.2,0.5-1.5,0.2c-0.8-2.8-2.3-6.6-7.9-6.6c-5.7,0-6.9,3.8-6.9,6.5
		c0,3.4,2.8,5.8,5,7.2l4.7,2.9c3.7,2.3,7.3,5.7,7.3,11.2C503.4,499.4,498.6,503.8,491,503.8"/>
	<path class="st9" d="M516.8,473.2c0-6.2-0.1-7.2-3.6-7.5l-1.5-0.1c-0.3-0.2-0.2-1.3,0.1-1.5c2.9,0.1,4.9,0.2,7.4,0.2
		c2.3,0,4.3-0.1,7.2-0.2c0.4,0.2,0.5,1.2,0.1,1.5l-1.5,0.1c-3.4,0.3-3.6,1.3-3.6,7.5V494c0,6.2,0.1,7,3.6,7.4l1.5,0.2
		c0.4,0.2,0.2,1.3-0.1,1.5c-2.9-0.1-4.9-0.2-7.2-0.2c-2.5,0-4.4,0.1-7.4,0.2c-0.4-0.2-0.5-1.1-0.1-1.5l1.5-0.2
		c3.4-0.4,3.6-1.2,3.6-7.4V473.2L516.8,473.2z"/>
	<path class="st9" d="M538.9,468.4c4.3-3.3,9.7-5,15.8-5c3.2,0,7.6,0.6,10.3,1.4c0.7,0.2,1.1,0.3,1.6,0.2c0.1,1.3,0.3,5,0.8,8.6
		c-0.3,0.4-1.2,0.5-1.6,0.1c-0.9-4-3.5-8.5-12-8.5c-8.9,0-16.5,5.7-16.5,17.7c0,12.3,7.8,19,17.3,19c7.5,0,10.9-4.9,12.2-8.3
		c0.4-0.3,1.3-0.2,1.5,0.2c-0.4,3-1.9,6.9-2.8,8c-0.7,0.1-1.4,0.3-2,0.6c-1.3,0.5-5.5,1.3-9.2,1.3c-5.3,0-10.3-1-14.5-3.9
		c-4.7-3.2-8.3-8.5-8.3-16C531.6,477.4,534.5,471.8,538.9,468.4"/>
	<path class="st9" d="M585.6,503.8c-4.9,0-8-1.5-9.1-2.2c-0.7-1.3-1.5-5.4-1.6-8.2c0.3-0.4,1.2-0.5,1.4-0.2c0.9,3,3.3,8.7,10,8.7
		c4.9,0,7.3-3.2,7.3-6.7c0-2.6-0.5-5.4-4.8-8.2l-5.5-3.6c-2.9-1.9-6.3-5.3-6.3-10c0-5.5,4.3-10,11.9-10c1.8,0,3.9,0.3,5.4,0.8
		c0.8,0.2,1.6,0.4,2,0.4c0.5,1.4,1,4.7,1,7.1c-0.2,0.3-1.2,0.5-1.5,0.2c-0.8-2.8-2.3-6.6-7.9-6.6c-5.7,0-6.9,3.8-6.9,6.5
		c0,3.4,2.8,5.8,5,7.2l4.7,2.9c3.7,2.3,7.3,5.7,7.3,11.2C598,499.4,593.2,503.8,585.6,503.8"/>
	<path class="st9" d="M628.9,473.1c0-6.1-0.1-7.1-3.8-7.3l-1.5-0.1c-0.3-0.2-0.2-1.3,0.1-1.5c3.3,0.1,5.3,0.2,7.6,0.2
		c2.3,0,4.3-0.1,7.2-0.2c0.3,0.2,0.5,1.2,0.1,1.5l-1.4,0.1c-3.4,0.3-3.6,1.2-3.6,7.3v20.3c0,3.7,0.2,5.2,1.2,6.3
		c0.6,0.6,1.8,1.3,6.4,1.3c5,0,6.2-0.2,7.1-0.8c1.2-0.7,2.7-2.8,3.8-5.8c0.4-0.3,1.5-0.1,1.5,0.4c0,0.6-1.6,6.6-2.5,8.2
		c-3-0.1-8.5-0.2-14.5-0.2h-5.4c-2.5,0-4.3,0.1-7.6,0.2c-0.3-0.2-0.5-1.1-0.1-1.5l1.8-0.2c3.4-0.4,3.5-1.2,3.5-7.3V473.1
		L628.9,473.1z"/>
	<path class="st9" d="M669.5,484.1c-0.5,1.3-0.4,1.4,1.2,1.4h7.2c1.7,0,1.8-0.2,1.3-1.8l-3.2-9.5c-0.5-1.4-1-3-1.3-3.7h-0.1
		c-0.2,0.3-0.8,1.7-1.4,3.4L669.5,484.1L669.5,484.1z M681.1,489.3c-0.4-1.3-0.6-1.5-2.4-1.5h-8.8c-1.5,0-1.8,0.2-2.2,1.4l-2,6.1
		c-0.9,2.6-1.3,4.2-1.3,4.8c0,0.7,0.3,1,1.7,1.2l1.9,0.2c0.4,0.3,0.4,1.2-0.1,1.5c-1.5-0.1-3.3-0.1-6.1-0.2c-1.9,0-4,0.1-5.6,0.2
		c-0.4-0.2-0.5-1.2-0.1-1.5l1.9-0.2c1.4-0.1,2.7-0.8,3.5-2.9c1-2.7,2.7-6.5,5.1-13l6-15.8c0.8-2.1,1.2-3.2,1-4.1
		c1.4-0.4,2.4-1.5,3-2.2c0.3,0,0.8,0.1,0.9,0.5c0.8,2.6,1.7,5.3,2.6,7.8l8,23.5c1.7,5,2.5,5.9,5,6.2l1.6,0.2c0.4,0.3,0.3,1.2,0,1.5
		c-2.4-0.1-4.4-0.2-7.1-0.2c-2.8,0-5,0.1-6.7,0.2c-0.5-0.2-0.5-1.2-0.1-1.5l1.7-0.2c1.2-0.1,2-0.5,2-1c0-0.6-0.3-1.7-0.8-3.1
		L681.1,489.3L681.1,489.3z"/>
	<path class="st9" d="M708.8,493.2c0,2.1,0.1,5.1,1.2,6.4c1.1,1.3,2.9,1.6,4.6,1.6c5.2,0,9.2-2.3,9.2-8.2c0-4.6-2.3-10-11.6-10
		c-3.2,0-3.4,0.3-3.4,1.5V493.2L708.8,493.2z M708.8,479.7c0,1.6,0.1,1.8,3,1.6c6-0.2,9.2-2,9.2-7.5c0-5.7-4.3-7.9-8.7-7.9
		c-1.3,0-2.2,0.1-2.7,0.3c-0.6,0.2-0.8,0.5-0.8,1.5V479.7L708.8,479.7z M704,471.9c0-4.3-0.2-5.4-2.9-5.7l-1.9-0.2
		c-0.5-0.3-0.4-1.2,0.1-1.5c3.2-0.3,7.1-0.5,12.6-0.5c3.7,0,7.2,0.3,9.8,1.6c2.5,1.2,4.4,3.6,4.4,7.3c0,4.2-2.5,6.4-6,8
		c0,0.6,0.5,0.8,1.1,0.9c3.2,0.6,7.8,3.5,7.8,9.8c0,6.8-5,11.3-15.5,11.3c-1.7,0-4.6-0.2-7-0.2c-2.6,0-4.6,0.1-6.7,0.2
		c-0.3-0.2-0.5-1.1-0.1-1.5l1.1-0.2c3.1-0.5,3.2-1.2,3.2-7.3V471.9L704,471.9z"/>
	<path class="st9" d="M771.1,485.2c0-9.6-4.3-20-15.4-20c-6.1,0-14,4.1-14,16.9c0,8.6,4.2,19.8,15.7,19.8
		C764.5,502,771.1,496.7,771.1,485.2 M735.9,484c0-11.7,8.8-20.6,20.8-20.6c13.5,0,20.2,9.7,20.2,20c0,11.8-9,20.4-20.2,20.4
		C743.8,503.8,735.9,494.5,735.9,484"/>
	<path class="st9" d="M791.8,481.5c0,1,0,1.7,0.2,1.9c0.2,0.2,1,0.3,4,0.3c2.1,0,4.3-0.2,6-1.5c1.6-1.2,2.9-3.3,2.9-7.2
		c0-4.6-2.9-9-9.3-9c-3.6,0-3.8,0.2-3.8,1.9V481.5L791.8,481.5z M787.1,473.2c0-5.5-0.2-6.5-2.6-6.8l-1.9-0.2
		c-0.4-0.3-0.4-1.2,0.1-1.5c3.3-0.3,7.3-0.5,13-0.5c3.6,0,7.1,0.3,9.7,1.8c2.8,1.5,4.8,4.1,4.8,8.2c0,5.5-4.4,8.6-7.3,9.7
		c-0.3,0.3,0,0.9,0.3,1.4c4.7,7.5,7.8,12.2,11.7,15.5c1,0.9,2.5,1.5,4,1.6c0.3,0.1,0.3,0.6,0.1,0.8c-0.5,0.2-1.5,0.3-2.6,0.3
		c-5,0-7.9-1.5-12.1-7.4c-1.5-2.2-3.9-6.2-5.7-8.8c-0.9-1.3-1.8-1.9-4.1-1.9c-2.6,0-2.7,0.1-2.7,1.3v7.4c0,6.1,0.1,6.8,3.5,7.3
		l1.2,0.2c0.4,0.3,0.2,1.3-0.1,1.5c-2.6-0.1-4.6-0.2-6.9-0.2c-2.5,0-4.6,0.1-7.3,0.2c-0.3-0.2-0.5-1-0.1-1.5l1.5-0.2
		c3.4-0.4,3.5-1.2,3.5-7.3V473.2L787.1,473.2z"/>
	<path class="st9" d="M832.3,484.1c-0.5,1.3-0.4,1.4,1.2,1.4h7.2c1.7,0,1.8-0.2,1.3-1.8l-3.2-9.5c-0.5-1.4-1-3-1.3-3.7h-0.1
		c-0.2,0.3-0.8,1.7-1.4,3.4L832.3,484.1L832.3,484.1z M843.9,489.3c-0.4-1.3-0.6-1.5-2.4-1.5h-8.8c-1.5,0-1.8,0.2-2.2,1.4l-2,6.1
		c-0.9,2.6-1.3,4.2-1.3,4.8c0,0.7,0.3,1,1.7,1.2l1.9,0.2c0.4,0.3,0.4,1.2-0.1,1.5c-1.5-0.1-3.3-0.1-6.1-0.2c-1.9,0-4,0.1-5.6,0.2
		c-0.4-0.2-0.5-1.2-0.1-1.5l1.9-0.2c1.4-0.1,2.7-0.8,3.5-2.9c1-2.7,2.7-6.5,5.1-13l6-15.8c0.8-2.1,1.2-3.2,1-4.1
		c1.4-0.4,2.4-1.5,3-2.2c0.4,0,0.8,0.1,0.9,0.5c0.8,2.6,1.7,5.3,2.6,7.8l8,23.5c1.7,5,2.5,5.9,5,6.2l1.6,0.2c0.4,0.3,0.3,1.2,0,1.5
		c-2.4-0.1-4.4-0.2-7.1-0.2c-2.8,0-5,0.1-6.7,0.2c-0.5-0.2-0.5-1.2-0.1-1.5l1.7-0.2c1.2-0.1,2-0.5,2-1c0-0.6-0.3-1.7-0.8-3.1
		L843.9,489.3L843.9,489.3z"/>
	<path class="st9" d="M875,494.1c0,6.1,0.1,7,3.5,7.3l1.9,0.2c0.3,0.2,0.2,1.3-0.1,1.5c-3.3-0.1-5.3-0.2-7.6-0.2
		c-2.3,0-4.4,0.1-8.1,0.2c-0.3-0.2-0.5-1.2,0-1.5l2.1-0.2c3.3-0.3,3.6-1.2,3.6-7.3V468c0-1.8,0-1.9-1.8-1.9h-3.2
		c-2.5,0-5.7,0.1-7.2,1.5c-1.4,1.3-2,2.6-2.6,4c-0.5,0.3-1.3,0.1-1.5-0.4c0.9-2.6,1.8-6.4,2.2-8.7c0.2-0.1,0.9-0.2,1.1,0
		c0.3,1.9,2.3,1.8,5,1.8h23.6c3.2,0,3.7-0.1,4.5-1.6c0.3-0.1,0.9-0.1,1.1,0.2c-0.6,2.4-1.1,7.1-0.9,8.9c-0.2,0.5-1.2,0.5-1.5,0.1
		c-0.2-1.5-0.6-3.6-1.5-4.3c-1.3-1-3.6-1.5-6.8-1.5h-4.1c-1.8,0-1.7,0.1-1.7,2V494.1L875,494.1z"/>
	<path class="st9" d="M929.8,485.2c0-9.6-4.3-20-15.4-20c-6.1,0-14,4.1-14,16.9c0,8.6,4.2,19.8,15.7,19.8
		C923.2,502,929.8,496.7,929.8,485.2 M894.6,484c0-11.7,8.8-20.6,20.8-20.6c13.5,0,20.3,9.7,20.3,20c0,11.8-9,20.4-20.3,20.4
		C902.5,503.8,894.6,494.5,894.6,484"/>
	<path class="st9" d="M952,481.5c0,1,0,1.7,0.2,1.9c0.2,0.2,1,0.3,4,0.3c2.1,0,4.3-0.2,6-1.5c1.6-1.2,2.9-3.3,2.9-7.2
		c0-4.6-2.9-9-9.3-9c-3.6,0-3.8,0.2-3.8,1.9V481.5L952,481.5z M947.2,473.2c0-5.5-0.2-6.5-2.6-6.8l-1.9-0.2
		c-0.4-0.3-0.4-1.2,0.1-1.5c3.3-0.3,7.3-0.5,13-0.5c3.6,0,7.1,0.3,9.7,1.8c2.8,1.5,4.8,4.1,4.8,8.2c0,5.5-4.4,8.6-7.3,9.7
		c-0.3,0.3,0,0.9,0.3,1.4c4.7,7.5,7.8,12.2,11.7,15.5c1,0.9,2.5,1.5,4,1.6c0.3,0.1,0.3,0.6,0.1,0.8c-0.5,0.2-1.5,0.3-2.6,0.3
		c-5,0-7.9-1.5-12.1-7.4c-1.5-2.2-3.9-6.2-5.7-8.8c-0.9-1.3-1.8-1.9-4.1-1.9c-2.6,0-2.7,0.1-2.7,1.3v7.4c0,6.1,0.1,6.8,3.5,7.3
		l1.2,0.2c0.4,0.3,0.2,1.3-0.1,1.5c-2.6-0.1-4.6-0.2-6.9-0.2c-2.5,0-4.6,0.1-7.3,0.2c-0.3-0.2-0.5-1-0.1-1.5l1.5-0.2
		c3.4-0.4,3.5-1.2,3.5-7.3V473.2L947.2,473.2z"/>
	<path class="st9" d="M995.5,494c0,6.2,0.4,7.2,3.5,7.4l2.2,0.2c0.4,0.3,0.2,1.3-0.1,1.5c-3.6-0.1-5.6-0.2-7.9-0.2
		c-2.5,0-4.5,0.1-7.6,0.2c-0.3-0.2-0.5-1.1-0.1-1.5l1.8-0.2c3.4-0.3,3.5-1.2,3.5-7.4v-3c0-3.2-0.2-4-1.9-7.2l-6.9-13.4
		c-2-3.9-2.9-4.1-4.6-4.4l-1.6-0.3c-0.4-0.4-0.3-1.2,0.1-1.5c1.9,0.1,4,0.2,6.8,0.2c2.7,0,4.8-0.1,6.2-0.2c0.5,0.2,0.5,1.1,0.2,1.5
		l-0.8,0.1c-2,0.3-2.5,0.6-2.5,1c0,0.6,1.5,3.9,1.8,4.5c2.2,4.3,4.3,8.9,6.6,13c1.8-3.1,3.7-6.5,5.5-9.9c1.6-3,3.8-7,3.8-7.7
		c0-0.3-1-0.8-2.5-0.9l-1-0.1c-0.4-0.4-0.4-1.2,0.1-1.5c2.1,0.1,3.8,0.2,5.6,0.2c1.8,0,3.4-0.1,5.4-0.2c0.5,0.3,0.5,1.1,0.1,1.5
		l-1.6,0.3c-3,0.5-4.8,4.2-7.7,9.2l-3.7,6.4c-2.6,4.4-2.7,5-2.7,9.4V494L995.5,494z"/>
</g>
</svg>
